<?xml version="1.0" encoding="utf-8"?>
<!-- Generator: Adobe Illustrator 22.0.1, SVG Export Plug-In . SVG Version: 6.00 Build 0)  -->
<svg version="1.1" id="website" xmlns="http://www.w3.org/2000/svg" xmlns:xlink="http://www.w3.org/1999/xlink" x="0px" y="0px"
	 width="1280px" height="800px" viewBox="0 0 1280 800" style="enable-background:new 0 0 1280 800;" xml:space="preserve">
<style type="text/css">
	.st0{fill:#F8F2F2;}
	.st1{fill:#F7C70D;}
	.st2{fill:#E6E6E6;}
	.st3{fill:#CCCCCC;}
	.st4{fill:#FFFFFF;}
	.st5{display:none;}
	.st6{display:inline;fill:#FFFFFF;}
	.st7{display:inline;fill:#2D476D;}
	.st8{display:inline;}
	.st9{clip-path:url(#SVGID_2_);}
	.st10{fill:#2D476D;}
	.st11{fill:#DD3E00;}
	.st12{fill:#323A75;}
	.st13{fill:#383838;}
	.st14{clip-path:url(#SVGID_4_);}
	.st15{fill:#F7B94B;}
	.st16{clip-path:url(#SVGID_6_);}
	.st17{fill:#F7B94B;stroke:#2D476D;stroke-width:5;stroke-miterlimit:10;}
	.st18{clip-path:url(#SVGID_8_);}
	.st19{clip-path:url(#SVGID_10_);}
	.st20{clip-path:url(#SVGID_12_);}
	.st21{fill:none;stroke:#000000;stroke-miterlimit:10;}
	.st22{font-family:'WatchwordRegularDemo';}
	.st23{font-size:20px;}
	.st24{font-family:'WatchwordBoldDemo';}
	.st25{font-size:26px;}
	.st26{font-family:'WatchwordThinDemo';}
</style>
<rect class="st0" width="1280" height="800"/>
<rect class="st1" width="1263.6" height="94"/>
<rect x="1263.6" class="st2" width="15.9" height="800"/>
<path class="st3" d="M1271.6,143.8L1271.6,143.8c-2.9,0-5.3-2.4-5.3-5.3V13.7c0-2.9,2.4-5.3,5.3-5.3l0,0c2.9,0,5.3,2.4,5.3,5.3
	v124.7C1276.9,141.4,1274.5,143.8,1271.6,143.8z"/>
<g>
	<g>
		<path class="st4" d="M1151.3,54.3h22.7c2.6,0,4.7-2.1,4.7-4.7V40c0,0,0,0,0,0c0,0,0,0,0-0.1c0,0,0,0,0-0.1c0,0,0,0,0-0.1
			s0,0,0-0.1c0,0,0,0,0-0.1c0,0,0,0,0-0.1c0,0,0,0,0-0.1s0,0,0-0.1c0,0,0,0,0,0c0,0,0,0,0-0.1c0,0,0,0,0,0s0,0,0-0.1c0,0,0,0,0,0
			c0,0,0,0,0,0c0,0,0,0,0,0s0,0,0,0c0,0,0,0,0,0c0,0,0,0,0,0c0,0,0,0-0.1,0c0,0,0,0,0,0c0,0,0,0-0.1,0c0,0,0,0-0.1,0c0,0,0,0-0.1,0
			s0,0-0.1,0c0,0,0,0-0.1,0c0,0,0,0-0.1,0s0,0,0,0c0,0,0,0-0.1,0c0,0,0,0,0,0l-28.8-4v-4c0,0,0-0.1,0-0.1c0,0,0,0,0,0
			c0,0,0-0.1,0-0.1c0,0,0,0,0-0.1c0,0,0,0,0,0c0,0,0-0.1,0-0.1c0,0,0,0,0,0c0,0,0,0,0-0.1c0,0,0,0,0,0c0,0,0,0,0-0.1c0,0,0,0,0,0
			c0,0,0,0,0,0c0,0,0,0,0-0.1c0,0,0,0,0,0c0,0,0,0-0.1-0.1c0,0,0,0,0,0c0,0,0,0-0.1-0.1c0,0,0,0,0,0c0,0,0,0-0.1,0c0,0-0.1,0-0.1,0
			c0,0,0,0,0,0c0,0-0.1,0-0.1-0.1l-6.2-2.6c-0.6-0.2-1.3,0-1.5,0.6c-0.2,0.6,0,1.3,0.6,1.5l5.5,2.3v5.2v0.8V44v5.7v7.1
			c0,2.4,1.8,4.4,4.1,4.6c-0.4,0.7-0.7,1.5-0.7,2.4c0,2.6,2.1,4.6,4.6,4.6s4.6-2.1,4.6-4.6c0-0.8-0.2-1.7-0.6-2.3h10.3
			c-0.4,0.7-0.6,1.5-0.6,2.3c0,2.6,2.1,4.6,4.6,4.6s4.6-2.1,4.6-4.6s-2.1-4.6-4.6-4.6h-21.6c-1.3,0-2.4-1.1-2.4-2.4v-3.1
			C1149.6,54,1150.4,54.3,1151.3,54.3z M1157,63.8c0,1.3-1.1,2.3-2.3,2.3s-2.3-1.1-2.3-2.3c0-1.3,1.1-2.3,2.3-2.3
			S1157,62.5,1157,63.8z M1175.2,63.8c0,1.3-1.1,2.3-2.3,2.3s-2.3-1.1-2.3-2.3c0-1.3,1.1-2.3,2.3-2.3S1175.2,62.5,1175.2,63.8z
			 M1174,52h-22.7c-1.3,0-2.4-1.1-2.4-2.4v-5.7v-6.3v-0.4l27.5,3.8v8.6C1176.4,50.9,1175.3,52,1174,52z"/>
	</g>
</g>
<g>
	<path class="st4" d="M33.8,45.8h9.6v4.5h-9.6v7.4h11.8v4.5H29.3V33.9h16.3v4.4H33.8V45.8z"/>
	<path class="st4" d="M53.8,34v23.8h15.4v4.5H49.3V34H53.8z"/>
	<path class="st4" d="M89.1,34L77.7,53.1v9.1h-4.5v-9.1L61.7,34h5.2l8.6,14.2L84,34H89.1z"/>
	<path class="st4" d="M95.9,57.3c0.9,0.7,1.9,1,2.9,1c1.2,0,2.3-0.4,3.2-1.3c0.9-0.8,1.3-1.7,1.3-2.7c0-1.3-0.5-2.3-1.4-3
		c-0.6-0.4-1.6-0.8-3.1-1.1c-2.7-0.6-4.5-1.3-5.5-2.1c-1.7-1.3-2.5-3.4-2.5-6.3c0-2.3,0.8-4.4,2.5-6c1.7-1.7,3.7-2.5,6-2.5
		c1.6,0,3.1,0.4,4.4,1.3c1.4,0.8,2.4,2,3.1,3.4l-4,2c-0.3-0.7-0.8-1.2-1.5-1.6s-1.3-0.6-2.1-0.6c-1.1,0-2.1,0.4-2.9,1.2
		c-0.8,0.8-1.2,1.7-1.2,2.9c0,1.3,0.5,2.3,1.4,3c0.6,0.4,1.6,0.8,3.1,1.1c2.7,0.6,4.5,1.3,5.5,2.1c1.7,1.3,2.5,3.4,2.5,6.3
		c0,2.3-0.9,4.3-2.7,6c-1.8,1.7-3.9,2.5-6.3,2.5c-2,0-3.9-0.6-5.6-1.9c-1.7-1.3-2.8-2.9-3.2-4.8l4.4-0.9C94.5,56,95,56.7,95.9,57.3z
		"/>
	<path class="st4" d="M117.4,34v28.2H113V34H117.4z"/>
	<path class="st4" d="M128.6,57l-2.2,5.2h-4.8l12.3-28.8l12.3,28.8h-4.8L139,57C139,57,128.6,57,128.6,57z M137.2,52.8l-3.5-8.1
		l-3.5,8.1H137.2z"/>
	<path class="st4" d="M148.6,62.2V33.6l19.8,18.8V34h4.5v28.8L153.1,44v18.2C153.1,62.2,148.6,62.2,148.6,62.2z"/>
</g>
<g class="st5">
	<path class="st6" d="M714.3,68.1H236.5c-9.7,0-17.6-7.9-17.6-17.6l0,0c0-9.7,7.9-17.6,17.6-17.6h477.8c9.7,0,17.6,7.9,17.6,17.6
		l0,0C731.9,60.2,724,68.1,714.3,68.1z"/>
	<path class="st7" d="M714.3,68.1h-18c-9.7,0-17.6-7.9-17.6-17.6l0,0c0-9.7,7.9-17.6,17.6-17.6h18c9.7,0,17.6,7.9,17.6,17.6l0,0
		C731.9,60.2,724,68.1,714.3,68.1z"/>
	<g class="st8">
		<path class="st4" d="M715.6,59l-4.9-5.1c1.3-1.5,2-3.4,2-5.4c0-4.6-3.8-8.4-8.4-8.4s-8.4,3.8-8.4,8.4s3.8,8.4,8.4,8.4
			c1.7,0,3.4-0.5,4.8-1.5l5,5.2c0.2,0.2,0.5,0.3,0.8,0.3c0.3,0,0.6-0.1,0.8-0.3C716,60.2,716,59.5,715.6,59z M704.2,42.3
			c3.4,0,6.2,2.8,6.2,6.2c0,3.4-2.8,6.2-6.2,6.2c-3.4,0-6.2-2.8-6.2-6.2S700.8,42.3,704.2,42.3z"/>
	</g>
</g>
<g id="banner">
	<g>
		<g>
			<g>
				<defs>
					<rect id="SVGID_1_" x="0.2" y="94" width="1263.4" height="390.3"/>
				</defs>
				<clipPath id="SVGID_2_">
					<use xlink:href="#SVGID_1_"  style="overflow:visible;"/>
				</clipPath>
				<g class="st9">
				</g>
			</g>
		</g>
	</g>
</g>
<rect x="259" y="503.3" class="st4" width="241.1" height="280.8"/>
<g>
	<path d="M285.6,527.7c-0.9-0.3-1.8-0.5-2.8-0.5c-2.4,0-4.4,0.8-6,2.5c-1.6,1.7-2.5,3.7-2.5,6.2s0.8,4.5,2.5,6.2
		c1.6,1.7,3.6,2.5,6,2.5c1,0,1.9-0.2,2.8-0.5c0.8-0.3,1.7-0.8,2.4-1.4l1.4,1.7c-1,0.8-2,1.4-3,1.8c-1.1,0.4-2.4,0.7-3.6,0.7
		c-3,0-5.5-1-7.5-3.1c-2.1-2.1-3.1-4.7-3.1-7.7c0-3,1-5.6,3.1-7.7c2.1-2.1,4.6-3.2,7.5-3.2c1.3,0,2.5,0.2,3.6,0.7
		c1.1,0.4,2.1,1,3,1.8l-1.4,1.7C287.3,528.5,286.5,528,285.6,527.7z"/>
	<path d="M309.3,528.1c2,2.1,3,4.7,3,7.7c0,3-1,5.6-3,7.7c-2,2.1-4.5,3.1-7.5,3.1s-5.4-1-7.5-3.1c-2-2.1-3-4.7-3-7.7
		c0-3,1-5.6,3-7.7c2-2.1,4.5-3.1,7.5-3.1S307.3,526.1,309.3,528.1z M301.8,527.2c-2.3,0-4.3,0.8-5.9,2.5c-1.6,1.7-2.4,3.7-2.4,6.2
		c0,2.4,0.8,4.5,2.4,6.2c1.6,1.6,3.6,2.5,5.9,2.5c2.3,0,4.3-0.8,5.9-2.5c1.6-1.7,2.4-3.7,2.4-6.2c0-2.4-0.8-4.5-2.4-6.2
		C306.1,528,304.2,527.2,301.8,527.2z"/>
	<path d="M315.1,546.1V525l11.2,16.8l11.2-16.8v21.2h-2.2v-14l-9,13.6l-9-13.6v14H315.1z"/>
	<path d="M346.7,525.4c1.9,0,3.4,0.7,4.8,2c1.3,1.3,2,2.9,2,4.8c0,1.9-0.7,3.5-2,4.8c-1.3,1.3-2.9,2-4.8,2h-3.8v7.2h-2.2v-20.7
		L346.7,525.4L346.7,525.4L346.7,525.4z M342.9,527.6v9.1h3.8c1.2,0,2.3-0.5,3.2-1.4c0.9-0.9,1.3-2,1.3-3.2c0-1.2-0.4-2.3-1.3-3.2
		c-0.9-0.9-2-1.3-3.2-1.3L342.9,527.6L342.9,527.6z"/>
	<path d="M371.2,525.4V539c0,2.1-0.8,3.9-2.3,5.4c-1.5,1.5-3.3,2.2-5.4,2.2c-2.1,0-3.9-0.7-5.4-2.2c-1.5-1.5-2.2-3.3-2.2-5.4v-13.5
		h2.2V539c0,1.5,0.5,2.8,1.6,3.9c1.1,1.1,2.4,1.6,3.9,1.6s2.8-0.5,3.9-1.6c1.1-1.1,1.6-2.4,1.6-3.9v-13.5H371.2z"/>
	<path d="M373.1,525.4h13.1v2.2h-5.5v18.5h-2.2v-18.5h-5.5L373.1,525.4L373.1,525.4z"/>
	<path d="M390.3,534.7h7.6v2.2h-7.6v7.1h9.2v2.2h-11.4v-20.7h11.4v2.2h-9.2L390.3,534.7L390.3,534.7z"/>
	<path d="M413.7,546.1l-4.7-7.2h-4.8v7.2H402v-20.7h7.8c1.9,0,3.5,0.7,4.8,2c1.3,1.3,2,2.9,2,4.8c0,1.9-0.7,3.5-2,4.8
		c-0.9,0.9-1.9,1.5-3.1,1.8l4.8,7.4L413.7,546.1L413.7,546.1L413.7,546.1z M404.2,527.6v9.2h5.6c1.3,0,2.3-0.5,3.2-1.4
		c0.9-0.9,1.4-2,1.4-3.2c0-1.3-0.5-2.3-1.4-3.2c-0.9-0.9-2-1.3-3.2-1.3L404.2,527.6L404.2,527.6z"/>
	<path d="M421.9,543.5c0.8,0.6,1.7,0.9,2.7,0.9c1.1,0,2.1-0.4,2.9-1.2c0.8-0.7,1.2-1.6,1.2-2.6c0-1.3-0.4-2.2-1.3-2.8
		c-0.5-0.4-1.4-0.7-2.8-1c-1.9-0.5-3.2-1-3.9-1.5c-1.2-0.9-1.8-2.4-1.8-4.4c0-1.6,0.6-3.1,1.8-4.2c1.2-1.2,2.6-1.7,4.2-1.7
		c1.1,0,2.1,0.3,3.1,0.9s1.7,1.4,2.2,2.4l-1.9,1c-0.3-0.6-0.8-1.1-1.4-1.5c-0.6-0.4-1.3-0.6-2-0.6c-1,0-1.9,0.4-2.7,1.1
		c-0.7,0.7-1.1,1.6-1.1,2.7c0,1.3,0.4,2.2,1.3,2.8c0.5,0.4,1.4,0.7,2.8,1c1.9,0.5,3.2,1,3.9,1.5c1.2,0.9,1.8,2.4,1.8,4.4
		c0,1.6-0.6,3-1.9,4.2c-1.3,1.2-2.7,1.8-4.4,1.8c-1.4,0-2.8-0.4-4-1.3c-1.2-0.9-2-2-2.2-3.4l2.1-0.5
		C420.7,542.3,421.1,543,421.9,543.5z"/>
	<path d="M454.1,544l-0.3-0.3c-0.1,0.2-0.3,0.3-0.4,0.5c-1.7,1.7-3.6,2.6-5.7,2.6c-1.9,0-3.4-0.5-4.6-1.5c-0.9-0.7-1.4-1.7-1.6-2.8
		c-0.2-1.1-0.1-2.2,0.3-3.3c0.6-1.6,1.8-3.1,3.6-4.4c-0.9-1-1.5-1.9-1.8-2.4c-0.4-0.8-0.6-1.8-0.6-2.8c0-1.3,0.5-2.3,1.4-3.1
		c0.9-0.8,2-1.2,3.3-1.2c1.4,0,2.5,0.4,3.5,1.2c0.9,0.8,1.4,1.9,1.4,3.3c0,1.3-0.5,2.6-1.6,3.8c-0.6,0.6-1.3,1.2-2.3,1.8
		c1.2,1.4,2.8,3,4.7,5c0.3-0.7,0.6-1.6,0.7-2.5l2.1,0.4c-0.2,1.4-0.6,2.6-1.2,3.7l0.6,0.6c1.3,1.2,2.1,2.1,2.5,2.5l-1.6,1.5
		C456.1,546,455.3,545.2,454.1,544z M446.7,536.4c-1.5,1-2.5,2.2-3,3.4c-0.3,0.7-0.4,1.4-0.2,2.1c0.1,0.6,0.4,1.1,0.9,1.6
		c0.8,0.7,1.8,1,3.2,1c1.5,0,2.9-0.6,4.1-1.9c0.1-0.2,0.3-0.3,0.4-0.5C449.9,539.9,448.1,538,446.7,536.4z M447.2,533.6
		c0.9-0.6,1.6-1.1,2.1-1.6c0.7-0.8,1.1-1.5,1-2.2c0-0.7-0.2-1.3-0.7-1.7c-0.5-0.5-1.1-0.7-1.9-0.7c-0.8,0-1.4,0.2-1.9,0.7
		c-0.4,0.4-0.6,0.9-0.7,1.6c0,1,0.6,2.3,2,3.9L447.2,533.6z"/>
	<path d="M284.3,574.5h-8.8l-2.2,5.3h-2.4l9-21.2l9,21.2h-2.4L284.3,574.5z M283.4,572.4l-3.5-8.3l-3.5,8.3H283.4z"/>
	<path d="M303.2,561.3c-0.9-0.3-1.8-0.5-2.8-0.5c-2.4,0-4.4,0.8-6,2.5c-1.6,1.7-2.5,3.7-2.5,6.2c0,2.4,0.8,4.5,2.5,6.2
		c1.6,1.7,3.6,2.5,6,2.5c1,0,1.9-0.2,2.8-0.5c0.8-0.3,1.7-0.8,2.4-1.4l1.4,1.7c-1,0.8-2,1.4-3,1.8c-1.1,0.4-2.4,0.7-3.6,0.7
		c-3,0-5.5-1-7.5-3.1c-2.1-2.1-3.1-4.7-3.1-7.7c0-3,1-5.6,3.1-7.7c2.1-2.1,4.6-3.2,7.5-3.2c1.3,0,2.5,0.2,3.6,0.7
		c1.1,0.4,2.1,1,3,1.8l-1.4,1.7C304.9,562.1,304.1,561.6,303.2,561.3z"/>
	<path d="M322.9,561.3c-0.9-0.3-1.8-0.5-2.8-0.5c-2.4,0-4.4,0.8-6,2.5c-1.6,1.7-2.5,3.7-2.5,6.2c0,2.4,0.8,4.5,2.5,6.2
		c1.6,1.7,3.6,2.5,6,2.5c1,0,1.9-0.2,2.8-0.5c0.8-0.3,1.7-0.8,2.4-1.4l1.4,1.7c-1,0.8-2,1.4-3,1.8c-1.1,0.4-2.4,0.7-3.6,0.7
		c-3,0-5.5-1-7.5-3.1c-2.1-2.1-3.1-4.7-3.1-7.7c0-3,1-5.6,3.1-7.7c2.1-2.1,4.6-3.2,7.5-3.2c1.3,0,2.5,0.2,3.6,0.7
		c1.1,0.4,2.1,1,3,1.8l-1.4,1.7C324.6,562.1,323.8,561.6,322.9,561.3z"/>
	<path d="M331.6,568.3h7.6v2.2h-7.6v7.1h9.2v2.2h-11.4V559h11.4v2.2h-9.2L331.6,568.3L331.6,568.3z"/>
	<path d="M346.2,577.1c0.8,0.6,1.7,0.9,2.7,0.9c1.1,0,2.1-0.4,2.9-1.2c0.8-0.7,1.2-1.6,1.2-2.6c0-1.3-0.4-2.2-1.3-2.8
		c-0.5-0.4-1.4-0.7-2.8-1c-1.9-0.5-3.2-1-3.9-1.5c-1.2-0.9-1.8-2.4-1.8-4.4c0-1.6,0.6-3.1,1.8-4.2c1.2-1.2,2.6-1.7,4.2-1.7
		c1.1,0,2.1,0.3,3.1,0.9s1.7,1.4,2.2,2.4l-1.9,1c-0.3-0.6-0.8-1.1-1.4-1.5c-0.6-0.4-1.3-0.6-2-0.6c-1,0-1.9,0.4-2.7,1.1
		c-0.7,0.7-1.1,1.6-1.1,2.7c0,1.3,0.4,2.2,1.3,2.8c0.5,0.4,1.4,0.7,2.8,1c1.9,0.5,3.2,1,3.9,1.5c1.2,0.9,1.8,2.4,1.8,4.4
		c0,1.6-0.6,3-1.9,4.2c-1.3,1.2-2.7,1.8-4.4,1.8c-1.4,0-2.8-0.4-4-1.3c-1.2-0.9-2-2-2.2-3.4l2.1-0.5
		C344.9,575.9,345.4,576.6,346.2,577.1z"/>
	<path d="M360.8,577.1c0.8,0.6,1.7,0.9,2.7,0.9c1.1,0,2.1-0.4,2.9-1.2c0.8-0.7,1.2-1.6,1.2-2.6c0-1.3-0.4-2.2-1.3-2.8
		c-0.5-0.4-1.4-0.7-2.8-1c-1.9-0.5-3.2-1-3.9-1.5c-1.2-0.9-1.8-2.4-1.8-4.4c0-1.6,0.6-3.1,1.8-4.2c1.2-1.2,2.6-1.7,4.2-1.7
		c1.1,0,2.1,0.3,3.1,0.9s1.7,1.4,2.2,2.4l-1.9,1c-0.3-0.6-0.8-1.1-1.4-1.5c-0.6-0.4-1.3-0.6-2-0.6c-1,0-1.9,0.4-2.7,1.1
		c-0.7,0.7-1.1,1.6-1.1,2.7c0,1.3,0.4,2.2,1.3,2.8c0.5,0.4,1.4,0.7,2.8,1c1.9,0.5,3.2,1,3.9,1.5c1.2,0.9,1.8,2.4,1.8,4.4
		c0,1.6-0.6,3-1.9,4.2c-1.3,1.2-2.7,1.8-4.4,1.8c-1.4,0-2.8-0.4-4-1.3c-1.2-0.9-2-2-2.2-3.4l2.1-0.5
		C359.5,575.9,360,576.6,360.8,577.1z"/>
	<path d="M389.8,561.7c2,2.1,3,4.7,3,7.7c0,3-1,5.6-3,7.7c-2,2.1-4.5,3.1-7.5,3.1c-2.9,0-5.4-1-7.5-3.1c-2-2.1-3-4.7-3-7.7
		c0-3,1-5.6,3-7.7c2-2.1,4.5-3.1,7.5-3.1C385.3,558.6,387.8,559.7,389.8,561.7z M382.4,560.8c-2.3,0-4.3,0.8-5.9,2.5
		c-1.6,1.7-2.4,3.7-2.4,6.2c0,2.4,0.8,4.5,2.4,6.2c1.6,1.6,3.6,2.5,5.9,2.5c2.3,0,4.3-0.8,5.9-2.5c1.6-1.7,2.4-3.7,2.4-6.2
		c0-2.4-0.8-4.5-2.4-6.2C386.7,561.6,384.7,560.8,382.4,560.8z"/>
	<path d="M407.3,579.7l-4.7-7.2h-4.8v7.2h-2.2V559h7.8c1.9,0,3.4,0.7,4.8,2c1.3,1.3,2,2.9,2,4.8c0,1.9-0.7,3.5-2,4.8
		c-0.9,0.9-1.9,1.5-3.1,1.8l4.8,7.4L407.3,579.7L407.3,579.7L407.3,579.7z M397.8,561.2v9.2h5.6c1.3,0,2.3-0.5,3.2-1.4
		c0.9-0.9,1.4-2,1.4-3.2s-0.5-2.3-1.4-3.2c-0.9-0.9-2-1.3-3.2-1.3L397.8,561.2L397.8,561.2z"/>
	<path d="M415.8,559v20.7h-2.2V559H415.8z"/>
	<path d="M422.4,568.3h7.6v2.2h-7.6v7.1h9.2v2.2h-11.4V559h11.4v2.2h-9.2L422.4,568.3L422.4,568.3z"/>
	<path d="M437,577.1c0.8,0.6,1.7,0.9,2.7,0.9c1.1,0,2.1-0.4,2.9-1.2c0.8-0.7,1.2-1.6,1.2-2.6c0-1.3-0.4-2.2-1.3-2.8
		c-0.5-0.4-1.4-0.7-2.8-1c-1.9-0.5-3.2-1-3.9-1.5c-1.2-0.9-1.8-2.4-1.8-4.4c0-1.6,0.6-3.1,1.8-4.2c1.2-1.2,2.6-1.7,4.2-1.7
		c1.1,0,2.1,0.3,3.1,0.9s1.7,1.4,2.2,2.4l-1.9,1c-0.3-0.6-0.8-1.1-1.4-1.5c-0.6-0.4-1.3-0.6-2-0.6c-1,0-1.9,0.4-2.7,1.1
		c-0.7,0.7-1.1,1.6-1.1,2.7c0,1.3,0.4,2.2,1.3,2.8c0.5,0.4,1.4,0.7,2.8,1c1.9,0.5,3.2,1,3.9,1.5c1.2,0.9,1.8,2.4,1.8,4.4
		c0,1.6-0.6,3-1.9,4.2c-1.3,1.2-2.7,1.8-4.4,1.8c-1.4,0-2.8-0.4-4-1.3c-1.2-0.9-2-2-2.2-3.4l2.1-0.5
		C435.8,575.9,436.2,576.6,437,577.1z"/>
</g>
<rect x="511" y="503.3" class="st4" width="241" height="280.8"/>
<g>
	<path d="M539.6,540.9h-8.8l-2.2,5.3h-2.4l9-21.2l9,21.2h-2.4L539.6,540.9z M538.8,538.8l-3.5-8.3l-3.5,8.3H538.8z"/>
	<path d="M557.6,546.1l-4.7-7.2h-4.8v7.2H546v-20.7h7.8c1.9,0,3.5,0.7,4.8,2c1.3,1.3,2,2.9,2,4.8c0,1.9-0.7,3.5-2,4.8
		c-0.9,0.9-1.9,1.5-3.1,1.8l4.8,7.4L557.6,546.1L557.6,546.1L557.6,546.1z M548.2,527.6v9.2h5.6c1.3,0,2.3-0.5,3.2-1.4
		c0.9-0.9,1.4-2,1.4-3.2c0-1.3-0.5-2.3-1.4-3.2c-0.9-0.9-2-1.3-3.2-1.3L548.2,527.6L548.2,527.6z"/>
	<path d="M561.6,525.4h13.1v2.2h-5.5v18.5h-2.2v-18.5h-5.5L561.6,525.4L561.6,525.4z"/>
	<path d="M578.7,543.5c0.8,0.6,1.7,0.9,2.7,0.9c1.1,0,2.1-0.4,2.9-1.2c0.8-0.7,1.2-1.6,1.2-2.6c0-1.3-0.4-2.2-1.3-2.8
		c-0.5-0.4-1.4-0.7-2.8-1c-1.9-0.5-3.2-1-3.9-1.5c-1.2-0.9-1.8-2.4-1.8-4.4c0-1.6,0.6-3.1,1.8-4.2c1.2-1.2,2.6-1.7,4.2-1.7
		c1.1,0,2.1,0.3,3.1,0.9s1.7,1.4,2.2,2.4l-1.9,1c-0.3-0.6-0.8-1.1-1.4-1.5c-0.6-0.4-1.3-0.6-2-0.6c-1,0-1.9,0.4-2.7,1.1
		c-0.7,0.7-1.1,1.6-1.1,2.7c0,1.3,0.4,2.2,1.3,2.8c0.5,0.4,1.4,0.7,2.8,1c1.9,0.5,3.2,1,3.9,1.5c1.2,0.9,1.8,2.4,1.8,4.4
		c0,1.6-0.6,3-1.9,4.2c-1.3,1.2-2.7,1.8-4.4,1.8c-1.4,0-2.8-0.4-4-1.3c-1.2-0.9-2-2-2.2-3.4l2.1-0.5
		C577.5,542.3,577.9,543,578.7,543.5z"/>
	<path d="M591.4,546.1h-1V544h2.2v2.2l-0.7,2.4h-1.1L591.4,546.1z"/>
	<path d="M616.5,527.7c-0.9-0.3-1.8-0.5-2.8-0.5c-2.4,0-4.4,0.8-6,2.5c-1.7,1.7-2.5,3.7-2.5,6.2s0.8,4.5,2.5,6.2
		c1.6,1.7,3.6,2.5,6,2.5c1,0,1.9-0.2,2.8-0.5c0.8-0.3,1.7-0.8,2.4-1.4l1.4,1.7c-1,0.8-2,1.4-3,1.8c-1.1,0.4-2.4,0.7-3.6,0.7
		c-3,0-5.5-1-7.5-3.1c-2.1-2.1-3.1-4.7-3.1-7.7c0-3,1-5.6,3.1-7.7c2.1-2.1,4.6-3.2,7.5-3.2c1.3,0,2.5,0.2,3.6,0.7
		c1.1,0.4,2.1,1,3,1.8l-1.4,1.7C618.2,528.5,617.4,528,616.5,527.7z"/>
	<path d="M634.7,546.1l-4.7-7.2h-4.8v7.2H623v-20.7h7.8c1.9,0,3.5,0.7,4.8,2c1.3,1.3,2,2.9,2,4.8c0,1.9-0.7,3.5-2,4.8
		c-0.9,0.9-1.9,1.5-3.1,1.8l4.8,7.4L634.7,546.1L634.7,546.1z M625.2,527.6v9.2h5.6c1.3,0,2.3-0.5,3.2-1.4c0.9-0.9,1.4-2,1.4-3.2
		c0-1.3-0.5-2.3-1.4-3.2c-0.9-0.9-2-1.3-3.2-1.3L625.2,527.6L625.2,527.6z"/>
	<path d="M651.9,540.9h-8.8l-2.2,5.3h-2.4l9-21.2l9,21.2h-2.4L651.9,540.9z M651,538.8l-3.5-8.3l-3.5,8.3H651z"/>
	<path d="M660.4,534.7h7.9v2.2h-7.9v9.3h-2.2v-20.7H670v2.2h-9.6V534.7z"/>
	<path d="M670.8,525.4h13.1v2.2h-5.5v18.5h-2.2v-18.5h-5.5L670.8,525.4L670.8,525.4z"/>
	<path d="M687.9,543.5c0.8,0.6,1.7,0.9,2.7,0.9c1.1,0,2.1-0.4,2.9-1.2c0.8-0.7,1.2-1.6,1.2-2.6c0-1.3-0.4-2.2-1.3-2.8
		c-0.5-0.4-1.4-0.7-2.8-1c-1.9-0.5-3.2-1-3.9-1.5c-1.2-0.9-1.8-2.4-1.8-4.4c0-1.6,0.6-3.1,1.8-4.2c1.2-1.2,2.6-1.7,4.2-1.7
		c1.1,0,2.1,0.3,3.1,0.9s1.7,1.4,2.2,2.4l-1.9,1c-0.3-0.6-0.8-1.1-1.4-1.5c-0.6-0.4-1.3-0.6-2-0.6c-1,0-1.9,0.4-2.7,1.1
		c-0.7,0.7-1.1,1.6-1.1,2.7c0,1.3,0.4,2.2,1.3,2.8c0.5,0.4,1.4,0.7,2.8,1c1.9,0.5,3.2,1,3.9,1.5c1.2,0.9,1.8,2.4,1.8,4.4
		c0,1.6-0.6,3-1.9,4.2c-1.3,1.2-2.7,1.8-4.4,1.8c-1.4,0-2.8-0.4-4-1.3c-1.2-0.9-2-2-2.2-3.4l2.1-0.5
		C686.6,542.3,687.1,543,687.9,543.5z"/>
	<path d="M700.6,546.1h-1V544h2.2v2.2l-0.7,2.4h-1.1L700.6,546.1z"/>
	<path d="M725.5,544l-0.3-0.3c-0.1,0.2-0.3,0.3-0.4,0.5c-1.7,1.7-3.6,2.6-5.7,2.6c-1.9,0-3.4-0.5-4.6-1.5c-0.9-0.7-1.4-1.7-1.6-2.8
		c-0.2-1.1-0.1-2.2,0.3-3.3c0.6-1.6,1.8-3.1,3.6-4.4c-0.9-1-1.5-1.9-1.8-2.4c-0.4-0.8-0.6-1.8-0.6-2.8c0-1.3,0.5-2.3,1.4-3.1
		c0.9-0.8,2-1.2,3.3-1.2c1.4,0,2.5,0.4,3.5,1.2c0.9,0.8,1.4,1.9,1.4,3.3c0,1.3-0.5,2.6-1.6,3.8c-0.6,0.6-1.3,1.2-2.3,1.8
		c1.2,1.4,2.8,3,4.7,5c0.3-0.7,0.6-1.6,0.7-2.5l2.1,0.4c-0.2,1.4-0.6,2.6-1.2,3.7l0.6,0.6c1.3,1.2,2.1,2.1,2.5,2.5l-1.6,1.5
		C727.6,546,726.8,545.2,725.5,544z M718.2,536.4c-1.5,1-2.5,2.2-3,3.4c-0.3,0.7-0.4,1.4-0.2,2.1c0.1,0.6,0.4,1.1,0.9,1.6
		c0.8,0.7,1.8,1,3.2,1c1.5,0,2.9-0.6,4.1-1.9c0.1-0.2,0.3-0.3,0.4-0.5C721.3,539.9,719.5,538,718.2,536.4z M718.6,533.6
		c0.9-0.6,1.6-1.1,2.1-1.6c0.7-0.8,1.1-1.5,1-2.2c0-0.7-0.2-1.3-0.7-1.7c-0.5-0.5-1.1-0.7-1.9-0.7c-0.8,0-1.4,0.2-1.9,0.7
		c-0.4,0.4-0.6,0.9-0.7,1.6c0,1,0.6,2.3,2,3.9L718.6,533.6z"/>
	<path d="M530.6,577.1c0.8,0.6,1.7,0.9,2.7,0.9c1.1,0,2.1-0.4,2.9-1.2c0.8-0.7,1.2-1.6,1.2-2.6c0-1.3-0.4-2.2-1.3-2.8
		c-0.5-0.4-1.4-0.7-2.8-1c-1.9-0.5-3.2-1-3.9-1.5c-1.2-0.9-1.8-2.4-1.8-4.4c0-1.6,0.6-3.1,1.8-4.2c1.2-1.2,2.6-1.7,4.2-1.7
		c1.1,0,2.1,0.3,3.1,0.9s1.7,1.4,2.2,2.4l-1.9,1c-0.3-0.6-0.8-1.1-1.4-1.5c-0.6-0.4-1.3-0.6-2-0.6c-1,0-1.9,0.4-2.7,1.1
		c-0.7,0.7-1.1,1.6-1.1,2.7c0,1.3,0.4,2.2,1.3,2.8c0.5,0.4,1.4,0.7,2.8,1c1.9,0.5,3.2,1,3.9,1.5c1.2,0.9,1.8,2.4,1.8,4.4
		c0,1.6-0.6,3-1.9,4.2c-1.3,1.2-2.7,1.8-4.4,1.8c-1.4,0-2.8-0.4-4-1.3c-1.2-0.9-2-2-2.2-3.4l2.1-0.5
		C529.4,575.9,529.9,576.6,530.6,577.1z"/>
	<path d="M544.5,568.3h7.6v2.2h-7.6v7.1h9.2v2.2h-11.4V559h11.4v2.2h-9.2V568.3z"/>
	<path d="M557.1,559l5,15.1l6.8-15.1l6.8,15.1l5-15.1h2.3l-7,21.2l-7.1-15.8l-7.1,15.8l-6.9-21.2H557.1z"/>
	<path d="M588,559v20.7h-2.2V559H588z"/>
	<path d="M592.4,579.7v-20.9l14.5,15.8V559h2.2v21.2l-14.5-15.8v15.3L592.4,579.7L592.4,579.7z"/>
	<path d="M622.2,568.3h9.8v1.1c0,3.1-0.9,5.7-2.8,7.8c-1.8,2-4.2,3.1-7.1,3.1c-2.9,0-5.2-1-7.1-3.1c-1.8-2.1-2.8-4.6-2.8-7.8
		c0-3.1,0.9-5.7,2.8-7.7c1.8-2,4.2-3.1,7.1-3.1c1.5,0,2.9,0.3,4.3,0.9c1.4,0.6,2.6,1.4,3.6,2.5l-1.6,1.5c-0.8-0.9-1.8-1.5-2.9-2
		c-1.1-0.5-2.2-0.7-3.4-0.7c-2.2,0-4,0.8-5.4,2.4c-1.5,1.6-2.2,3.7-2.2,6.3c0,2.6,0.7,4.7,2.2,6.3c1.4,1.6,3.2,2.4,5.4,2.4
		c2.2,0,4.1-0.8,5.5-2.4c1.2-1.4,1.9-3.1,2.1-5.2h-7.6L622.2,568.3L622.2,568.3z"/>
</g>
<rect x="762.5" y="503.3" class="st4" width="243.5" height="280.8"/>
<g>
	<path d="M776,528.4h13.1v2.2h-5.5v18.5h-2.2v-18.5H776L776,528.4L776,528.4z"/>
	<path d="M806.8,531.1c2,2.1,3,4.7,3,7.7c0,3-1,5.6-3,7.7c-2,2.1-4.5,3.1-7.5,3.1c-2.9,0-5.4-1-7.5-3.1c-2-2.1-3-4.7-3-7.7
		c0-3,1-5.6,3-7.7c2-2.1,4.5-3.1,7.5-3.1C802.3,528,804.8,529.1,806.8,531.1z M799.4,530.2c-2.3,0-4.3,0.8-5.9,2.5
		c-1.6,1.7-2.4,3.7-2.4,6.2c0,2.4,0.8,4.5,2.4,6.2c1.6,1.6,3.6,2.5,5.9,2.5c2.3,0,4.3-0.8,5.9-2.5c1.6-1.7,2.4-3.7,2.4-6.2
		c0-2.4-0.8-4.5-2.4-6.2C803.7,531,801.7,530.2,799.4,530.2z"/>
	<path d="M830,528.4l-8.3,13.9v6.8h-2.2v-6.8l-8.4-13.9h2.5l6.9,11.5l6.9-11.5H830z"/>
	<path d="M833.9,546.5c0.8,0.6,1.7,0.9,2.7,0.9c1.1,0,2.1-0.4,2.9-1.2c0.8-0.7,1.2-1.6,1.2-2.6c0-1.3-0.4-2.2-1.3-2.8
		c-0.5-0.4-1.4-0.7-2.8-1c-1.9-0.5-3.2-1-3.9-1.5c-1.2-0.9-1.8-2.4-1.8-4.4c0-1.6,0.6-3.1,1.8-4.2c1.2-1.2,2.6-1.7,4.2-1.7
		c1.1,0,2.1,0.3,3.1,0.9s1.7,1.4,2.2,2.4l-1.9,1c-0.3-0.6-0.8-1.1-1.4-1.5c-0.6-0.4-1.3-0.6-2-0.6c-1,0-1.9,0.4-2.7,1.1
		c-0.7,0.7-1.1,1.6-1.1,2.7c0,1.3,0.4,2.2,1.3,2.8c0.5,0.4,1.4,0.7,2.8,1c1.9,0.5,3.2,1,3.9,1.5c1.2,0.9,1.8,2.4,1.8,4.4
		c0,1.6-0.6,3-1.9,4.2c-1.3,1.2-2.7,1.8-4.4,1.8c-1.4,0-2.8-0.4-4-1.3c-1.2-0.9-2-2-2.2-3.4l2.1-0.5
		C832.7,545.3,833.2,546,833.9,546.5z"/>
	<path d="M866.1,547l-0.3-0.3c-0.1,0.2-0.3,0.3-0.4,0.5c-1.7,1.7-3.6,2.6-5.7,2.6c-1.9,0-3.4-0.5-4.6-1.5c-0.9-0.7-1.4-1.7-1.6-2.8
		c-0.2-1.1-0.1-2.2,0.3-3.3c0.6-1.6,1.8-3.1,3.6-4.4c-0.9-1-1.5-1.9-1.8-2.4c-0.4-0.8-0.6-1.8-0.6-2.8c0-1.3,0.5-2.3,1.4-3.1
		c0.9-0.8,2-1.2,3.3-1.2c1.4,0,2.5,0.4,3.5,1.2c0.9,0.8,1.4,1.9,1.4,3.3c0,1.3-0.5,2.6-1.6,3.8c-0.6,0.6-1.3,1.2-2.3,1.8
		c1.2,1.4,2.8,3,4.7,5c0.3-0.7,0.6-1.6,0.7-2.5l2.1,0.4c-0.2,1.4-0.6,2.6-1.2,3.7l0.6,0.6c1.3,1.2,2.1,2.1,2.5,2.5l-1.6,1.5
		C868.2,549,867.4,548.2,866.1,547z M858.8,539.4c-1.5,1-2.5,2.2-3,3.4c-0.3,0.7-0.4,1.4-0.2,2.1c0.1,0.6,0.4,1.1,0.9,1.6
		c0.8,0.7,1.8,1,3.2,1c1.5,0,2.9-0.6,4.1-1.9c0.1-0.2,0.3-0.3,0.4-0.5C861.9,542.9,860.1,541,858.8,539.4z M859.2,536.6
		c0.9-0.6,1.6-1.1,2.1-1.6c0.7-0.8,1.1-1.5,1-2.2c0-0.7-0.2-1.3-0.7-1.7c-0.5-0.5-1.1-0.7-1.9-0.7c-0.8,0-1.4,0.2-1.9,0.7
		c-0.4,0.4-0.6,0.9-0.7,1.6c0,1,0.6,2.3,2,3.9L859.2,536.6z"/>
	<path d="M888.2,537.7h9.8v1.1c0,3.1-0.9,5.7-2.8,7.8c-1.8,2-4.2,3.1-7.1,3.1c-2.9,0-5.2-1-7.1-3.1c-1.8-2.1-2.8-4.6-2.8-7.8
		c0-3.1,0.9-5.7,2.8-7.7c1.8-2,4.2-3.1,7.1-3.1c1.5,0,2.9,0.3,4.3,0.9c1.4,0.6,2.6,1.4,3.6,2.5l-1.6,1.5c-0.8-0.9-1.8-1.5-2.9-2
		c-1.1-0.5-2.2-0.7-3.4-0.7c-2.2,0-4,0.8-5.4,2.4c-1.5,1.6-2.2,3.7-2.2,6.3c0,2.6,0.7,4.7,2.2,6.3c1.4,1.6,3.2,2.4,5.4,2.4
		c2.2,0,4.1-0.8,5.5-2.4c1.2-1.4,1.9-3.1,2.1-5.2h-7.6L888.2,537.7L888.2,537.7z"/>
	<path d="M912.6,543.9h-8.8l-2.2,5.3h-2.4l9-21.2l9,21.2h-2.4L912.6,543.9z M911.7,541.8l-3.5-8.3l-3.5,8.3H911.7z"/>
	<path d="M919,549.1V528l11.2,16.8l11.2-16.8v21.2h-2.2v-14l-9,13.6l-9-13.6v14H919z"/>
	<path d="M946.8,537.7h7.6v2.2h-7.6v7.1h9.2v2.2h-11.4v-20.7H956v2.2h-9.2V537.7z"/>
	<path d="M961.4,546.5c0.8,0.6,1.7,0.9,2.7,0.9c1.1,0,2.1-0.4,2.9-1.2c0.8-0.7,1.2-1.6,1.2-2.6c0-1.3-0.4-2.2-1.3-2.8
		c-0.5-0.4-1.4-0.7-2.8-1c-1.9-0.5-3.2-1-3.9-1.5c-1.2-0.9-1.8-2.4-1.8-4.4c0-1.6,0.6-3.1,1.8-4.2c1.2-1.2,2.6-1.7,4.2-1.7
		c1.1,0,2.1,0.3,3.1,0.9s1.7,1.4,2.2,2.4l-1.9,1c-0.3-0.6-0.8-1.1-1.4-1.5c-0.6-0.4-1.3-0.6-2-0.6c-1,0-1.9,0.4-2.7,1.1
		c-0.7,0.7-1.1,1.6-1.1,2.7c0,1.3,0.4,2.2,1.3,2.8c0.5,0.4,1.4,0.7,2.8,1c1.9,0.5,3.2,1,3.9,1.5c1.2,0.9,1.8,2.4,1.8,4.4
		c0,1.6-0.6,3-1.9,4.2c-1.3,1.2-2.7,1.8-4.4,1.8c-1.4,0-2.8-0.4-4-1.3c-1.2-0.9-2-2-2.2-3.4l2.1-0.5
		C960.2,545.3,960.6,546,961.4,546.5z"/>
</g>
<rect x="1016.7" y="503.3" class="st4" width="242.5" height="280.8"/>
<g>
	<path d="M1039.7,536.4c1.1,1.1,1.7,2.5,1.7,4s-0.6,2.9-1.7,4c-1.1,1.1-2.5,1.7-4,1.7h-7.9v-20.7h7.9c1.6,0,2.9,0.6,4,1.7
		c1.1,1.1,1.7,2.5,1.7,4s-0.6,2.9-1.7,4c-0.2,0.2-0.4,0.4-0.7,0.6C1039.3,536,1039.5,536.2,1039.7,536.4z M1029.9,527.6v7.1h5.8
		c1,0,1.8-0.3,2.5-1c0.7-0.7,1-1.5,1-2.5c0-1-0.3-1.8-1-2.5c-0.7-0.7-1.5-1-2.5-1L1029.9,527.6L1029.9,527.6z M1029.9,536.9v7.1h5.8
		c1,0,1.8-0.3,2.5-1c0.7-0.7,1-1.5,1-2.5c0-1-0.3-1.8-1-2.5c-0.7-0.7-1.5-1-2.5-1L1029.9,536.9L1029.9,536.9z"/>
	<path d="M1061.4,528.1c2,2.1,3.1,4.7,3.1,7.7c0,3-1,5.6-3.1,7.7c-2,2.1-4.5,3.1-7.5,3.1c-2.9,0-5.4-1-7.5-3.1c-2-2.1-3-4.7-3-7.7
		c0-3,1-5.6,3-7.7c2-2.1,4.5-3.1,7.5-3.1C1056.9,525,1059.4,526.1,1061.4,528.1z M1054,527.2c-2.3,0-4.3,0.8-5.9,2.5
		c-1.6,1.7-2.4,3.7-2.4,6.2c0,2.4,0.8,4.5,2.4,6.2c1.6,1.6,3.6,2.5,5.9,2.5c2.3,0,4.3-0.8,5.9-2.5c1.6-1.7,2.4-3.7,2.4-6.2
		c0-2.4-0.8-4.5-2.4-6.2C1058.3,528,1056.3,527.2,1054,527.2z"/>
	<path d="M1084.6,528.1c2,2.1,3,4.7,3,7.7c0,3-1,5.6-3,7.7c-2,2.1-4.5,3.1-7.5,3.1c-2.9,0-5.4-1-7.5-3.1c-2-2.1-3-4.7-3-7.7
		c0-3,1-5.6,3-7.7c2-2.1,4.5-3.1,7.5-3.1C1080.1,525,1082.6,526.1,1084.6,528.1z M1077.2,527.2c-2.3,0-4.3,0.8-5.9,2.5
		c-1.6,1.7-2.4,3.7-2.4,6.2c0,2.4,0.8,4.5,2.4,6.2c1.6,1.6,3.6,2.5,5.9,2.5c2.3,0,4.3-0.8,5.9-2.5c1.6-1.7,2.4-3.7,2.4-6.2
		c0-2.4-0.8-4.5-2.4-6.2C1081.5,528,1079.5,527.2,1077.2,527.2z"/>
	<path d="M1106.1,525.4l-9.5,9.5l9,11.2h-2.8l-7.7-9.7l-2.5,2.5v7.2h-2.2v-20.7h2.2v10.4l10.5-10.4L1106.1,525.4L1106.1,525.4z"/>
	<path d="M1110.7,543.5c0.8,0.6,1.7,0.9,2.7,0.9c1.1,0,2.1-0.4,2.9-1.2c0.8-0.7,1.2-1.6,1.2-2.6c0-1.3-0.4-2.2-1.3-2.8
		c-0.5-0.4-1.4-0.7-2.8-1c-1.9-0.5-3.2-1-3.9-1.5c-1.2-0.9-1.8-2.4-1.8-4.4c0-1.6,0.6-3.1,1.8-4.2c1.2-1.2,2.6-1.7,4.2-1.7
		c1.1,0,2.1,0.3,3.1,0.9s1.7,1.4,2.2,2.4l-1.9,1c-0.3-0.6-0.8-1.1-1.4-1.5c-0.6-0.4-1.3-0.6-2-0.6c-1,0-1.9,0.4-2.7,1.1
		c-0.7,0.7-1.1,1.6-1.1,2.7c0,1.3,0.4,2.2,1.3,2.8c0.5,0.4,1.4,0.7,2.8,1c1.9,0.5,3.2,1,3.9,1.5c1.2,0.9,1.8,2.4,1.8,4.4
		c0,1.6-0.6,3-1.9,4.2c-1.3,1.2-2.7,1.8-4.4,1.8c-1.4,0-2.8-0.4-4-1.3c-1.2-0.9-2-2-2.2-3.4l2.1-0.5
		C1109.5,542.3,1110,543,1110.7,543.5z"/>
</g>
<path class="st10" d="M409.3,418.3c0,10.7-9.7,19.3-21.8,19.3H69.4c-12,0-21.8-8.6-21.8-19.3l0,0c0-10.7,9.7-19.3,21.8-19.3h318.1
	C399.5,399,409.3,407.6,409.3,418.3L409.3,418.3z"/>
<g>
	<path class="st4" d="M100.8,150c21,0,38.9,7.4,53.9,22.3c14.9,14.9,22.3,32.8,22.3,53.8c0,21-7.4,38.9-22.3,53.8
		c-14.9,14.9-32.9,22.4-53.9,22.4H59.9V150H100.8z M83.9,174v104.2h16.8c14.3,0,26.6-5.1,36.8-15.3s15.3-22.5,15.3-36.8
		c0-14.3-5.1-26.5-15.3-36.7S115.1,174,100.8,174L83.9,174L83.9,174z"/>
	<path class="st4" d="M221,214h51.6v24H221v40.1h63.9v24H197V149.9h87.9v23.9H221L221,214L221,214z"/>
	<path class="st4" d="M332.9,274.1l-12,28.1h-26L361,146.8l66.3,155.5h-26.1l-12-28.1H332.9z M379.6,251.7L361,208l-18.6,43.6H379.6
		z"/>
	<path class="st4" d="M465.2,150v128.2h83.2v24H441.3V150H465.2z"/>
	<path class="st4" d="M86.2,338c4.1,4.2,6.1,9.3,6.1,15.4c0,6-2,11.2-6.1,15.4c-4.1,4.2-9.1,6.3-15,6.3c-5.9,0-10.9-2.1-15-6.3
		c-4.1-4.2-6.1-9.3-6.1-15.4c0-6.1,2-11.2,6.1-15.4c4.1-4.2,9.1-6.3,15-6.3C77.2,331.7,82.2,333.8,86.2,338z M71.2,338.3
		c-4.1,0-7.5,1.4-10.3,4.3c-2.8,2.9-4.2,6.5-4.2,10.8s1.4,7.9,4.2,10.8c2.8,2.9,6.2,4.3,10.3,4.3c4.1,0,7.5-1.4,10.3-4.3
		c2.8-2.9,4.2-6.5,4.2-10.8s-1.4-7.9-4.2-10.8C78.8,339.7,75.3,338.3,71.2,338.3z"/>
	<path class="st4" d="M104.4,350.2h14.7v6.6h-14.7v17.5h-6.6v-41.6h24.7v6.6h-18.1L104.4,350.2L104.4,350.2z"/>
	<path class="st4" d="M139.9,332.6H169v6.6h-11.3v35h-6.6v-35h-11.3L139.9,332.6L139.9,332.6z"/>
	<path class="st4" d="M208.1,332.6v41.6h-6.6v-17.5h-22v17.5h-6.6v-41.6h6.6v17.5h22v-17.5H208.1z"/>
	<path class="st4" d="M221.2,350.1h14.1v6.6h-14.1v11h17.4v6.6h-24v-41.6h24v6.5h-17.4L221.2,350.1L221.2,350.1z"/>
	<path class="st4" d="M284.9,339.2c-1.5-0.6-3.2-0.9-4.9-0.9c-4.1,0-7.6,1.4-10.4,4.3c-2.9,2.9-4.3,6.5-4.3,10.8
		c0,4.2,1.4,7.8,4.3,10.7c2.8,2.9,6.3,4.3,10.4,4.3c1.8,0,3.4-0.3,4.9-0.9c1.5-0.6,2.9-1.4,4.3-2.5l4.2,5.1
		c-1.9,1.6-3.9,2.8-6.1,3.6c-2.3,0.9-4.7,1.3-7.3,1.3c-5.9,0-11-2.1-15.1-6.3c-4.1-4.2-6.2-9.3-6.2-15.3s2.1-11.1,6.2-15.4
		c4.1-4.2,9.1-6.3,15.1-6.3c2.5,0,5,0.4,7.3,1.3c2.1,0.8,4.2,2,6.1,3.6l-4.2,5.1C287.8,340.6,286.4,339.8,284.9,339.2z"/>
	<path class="st4" d="M305.4,350.1h14.1v6.6h-14.1v11h17.4v6.6h-24v-41.6h24v6.5h-17.4L305.4,350.1L305.4,350.1z"/>
	<path class="st4" d="M328.3,374.2v-42.1l29.2,27.7v-27.2h6.6v42.5l-29.2-27.7v26.8H328.3z"/>
	<path class="st4" d="M367.8,332.6H397v6.6h-11.3v35h-6.6v-35h-11.3L367.8,332.6L367.8,332.6z"/>
	<path class="st4" d="M432.8,332.6v26.5c0,4.4-1.6,8.2-4.7,11.3c-3.1,3.1-6.9,4.7-11.3,4.7c-4.4,0-8.1-1.6-11.3-4.7
		c-3.1-3.1-4.7-6.9-4.7-11.3v-26.5h6.6v26.5c0,2.6,0.9,4.8,2.8,6.7c1.9,1.8,4.1,2.8,6.6,2.8c2.6,0,4.8-0.9,6.7-2.8
		c1.8-1.9,2.8-4.1,2.8-6.7v-26.5H432.8z"/>
	<path class="st4" d="M459.7,374.2l-8.7-13.3h-5.1v13.3h-6.6v-41.6h13.4c3.9,0,7.2,1.4,10,4.1c2.8,2.8,4.2,6.1,4.2,10
		c0,3.9-1.4,7.2-4.2,10c-1.3,1.3-2.9,2.4-4.6,3.1l9.4,14.4L459.7,374.2L459.7,374.2z M445.9,339.2v15.1h6.8c2.1,0,3.9-0.7,5.3-2.2
		c1.5-1.5,2.2-3.3,2.2-5.3s-0.7-3.9-2.2-5.3c-1.5-1.5-3.3-2.2-5.3-2.2H445.9z"/>
	<path class="st4" d="M509.7,332.6l-16.9,28.2v13.4h-6.6v-13.4l-17-28.2h7.6l12.6,20.9l12.6-20.9L509.7,332.6L509.7,332.6z"/>
	<path class="st4" d="M520.1,332.8v13.7l-1.4,13.8h-3.8l-1.4-13.8v-13.7H520.1z M520.1,367.7v6.6h-6.6v-6.6H520.1z"/>
	<path class="st4" d="M533.2,332.8v13.7l-1.4,13.8H528l-1.4-13.8v-13.7H533.2z M533.2,367.7v6.6h-6.6v-6.6H533.2z"/>
	<path class="st4" d="M546.3,332.8v13.7l-1.4,13.8h-3.8l-1.4-13.8v-13.7H546.3z M546.3,367.7v6.6h-6.6v-6.6H546.3z"/>
</g>
<path class="st11" d="M409.3,418.3c0,10.7-9.7,19.3-21.8,19.3H69.4c-12,0-21.8-8.6-21.8-19.3l0,0c0-10.7,9.7-19.3,21.8-19.3h318.1
	C399.5,399,409.3,407.6,409.3,418.3L409.3,418.3z"/>
<g>
	<path class="st4" d="M78.1,421.3c0,1.4-0.5,2.5-1.4,3.5c-1,1-2.1,1.4-3.5,1.4h-6.9v-17.1h6.7c1.4,0,2.5,0.5,3.5,1.4
		c1,1,1.4,2.1,1.4,3.5c0,1.7-0.7,2.9-2.2,3.6C77.3,418.4,78.1,419.6,78.1,421.3z M69,416.5h4c0.6,0,1.2-0.2,1.6-0.7
		c0.4-0.4,0.7-1,0.7-1.7c0-0.7-0.2-1.2-0.7-1.7c-0.4-0.4-1-0.7-1.6-0.7h-4V416.5z M69,418.8v4.7h4.2c0.6,0,1.2-0.2,1.6-0.7
		c0.4-0.4,0.7-1,0.7-1.7c0-0.7-0.2-1.2-0.7-1.7c-0.4-0.4-1-0.7-1.6-0.7H69z"/>
	<path class="st4" d="M93.5,409.1V420c0,1.8-0.6,3.4-1.9,4.6c-1.3,1.3-2.8,1.9-4.6,1.9c-1.8,0-3.3-0.6-4.6-1.9
		c-1.3-1.3-1.9-2.8-1.9-4.6v-10.9h2.7V420c0,1.1,0.4,2,1.1,2.7c0.8,0.8,1.7,1.1,2.7,1.1c1.1,0,2-0.4,2.7-1.1
		c0.8-0.8,1.1-1.7,1.1-2.7v-10.9H93.5z"/>
	<path class="st4" d="M111.7,409.1l-6.9,11.6v5.5h-2.7v-5.5l-7-11.6h3.1l5.2,8.6l5.2-8.6H111.7z"/>
	<path class="st4" d="M134.1,411.4c1.7,1.7,2.5,3.8,2.5,6.3c0,2.5-0.8,4.6-2.5,6.3c-1.7,1.7-3.7,2.6-6.2,2.6s-4.5-0.9-6.2-2.6
		c-1.7-1.7-2.5-3.8-2.5-6.3c0-2.5,0.8-4.6,2.5-6.3c1.7-1.7,3.7-2.6,6.2-2.6C130.4,408.8,132.4,409.6,134.1,411.4z M127.9,411.5
		c-1.7,0-3.1,0.6-4.2,1.8c-1.2,1.2-1.7,2.7-1.7,4.4c0,1.8,0.6,3.2,1.7,4.4c1.1,1.2,2.6,1.8,4.2,1.8c1.7,0,3.1-0.6,4.2-1.8
		c1.2-1.2,1.7-2.7,1.7-4.4s-0.6-3.2-1.7-4.4C131,412,129.6,411.5,127.9,411.5z"/>
	<path class="st4" d="M138.9,426.2v-17.3l12,11.4v-11.2h2.7v17.4l-12-11.4v11L138.9,426.2L138.9,426.2z"/>
	<path class="st4" d="M158.9,416.3h5.8v2.7h-5.8v4.5h7.2v2.7h-9.9v-17.1h9.9v2.7h-7.2V416.3z"/>
	<path class="st4" d="M171,426.2l-1.3,3.1h-1.4l1.3-3.1H171z M171,423.5v2.7h-2.7v-2.7H171z"/>
	<path class="st4" d="M187.9,416.3h8.1v1.3c0,2.5-0.8,4.7-2.3,6.3c-1.5,1.7-3.5,2.6-5.9,2.6c-2.4,0-4.3-0.9-5.9-2.6
		c-1.5-1.7-2.3-3.8-2.3-6.3c0-2.6,0.8-4.7,2.3-6.4c1.5-1.7,3.5-2.5,5.9-2.5c1.2,0,2.4,0.2,3.5,0.7c1.1,0.5,2.1,1.2,3,2.1l-2,1.8
		c-0.6-0.6-1.3-1.1-2.1-1.4c-0.8-0.3-1.6-0.5-2.4-0.5c-1.6,0-2.9,0.5-3.9,1.6c-1.1,1.2-1.6,2.7-1.6,4.6c0,1.9,0.5,3.4,1.6,4.5
		c1,1.1,2.3,1.7,3.9,1.7c1.6,0,2.9-0.6,3.9-1.7c0.8-0.9,1.2-1.9,1.5-3.2h-5.3L187.9,416.3L187.9,416.3z"/>
	<path class="st4" d="M200.9,416.3h5.8v2.7h-5.8v4.5h7.2v2.7h-9.9v-17.1h9.9v2.7h-7.2V416.3z"/>
	<path class="st4" d="M209.2,409.1h12v2.7h-4.6v14.4h-2.7v-14.4h-4.6V409.1z"/>
	<path class="st4" d="M243.6,411.4c1.7,1.7,2.5,3.8,2.5,6.3c0,2.5-0.8,4.6-2.5,6.3c-1.7,1.7-3.7,2.6-6.2,2.6c-2.4,0-4.5-0.9-6.2-2.6
		c-1.7-1.7-2.5-3.8-2.5-6.3c0-2.5,0.8-4.6,2.5-6.3c1.7-1.7,3.7-2.6,6.2-2.6C239.9,408.8,241.9,409.6,243.6,411.4z M237.4,411.5
		c-1.7,0-3.1,0.6-4.2,1.8c-1.2,1.2-1.7,2.7-1.7,4.4c0,1.8,0.6,3.2,1.7,4.4c1.1,1.2,2.6,1.8,4.2,1.8c1.7,0,3.1-0.6,4.2-1.8
		c1.2-1.2,1.7-2.7,1.7-4.4s-0.6-3.2-1.7-4.4C240.5,412,239.1,411.5,237.4,411.5z"/>
	<path class="st4" d="M248.4,426.2v-17.3l12,11.4v-11.2h2.7v17.4l-12-11.4v11L248.4,426.2L248.4,426.2z"/>
	<path class="st4" d="M268.4,416.3h5.8v2.7h-5.8v4.5h7.2v2.7h-9.9v-17.1h9.9v2.7h-7.2V416.3z"/>
	<path class="st4" d="M287,416.3h6v2.7h-6v7.2h-2.7v-17.1h10.1v2.7H287L287,416.3L287,416.3z"/>
	<path class="st4" d="M304.6,426.2l-3.6-5.5h-2.1v5.5h-2.7v-17.1h5.5c1.6,0,3,0.6,4.1,1.7c1.1,1.1,1.7,2.5,1.7,4.1
		c0,1.6-0.6,3-1.7,4.1c-0.5,0.5-1.2,1-1.9,1.3l3.9,5.9L304.6,426.2L304.6,426.2L304.6,426.2z M298.9,411.8v6.2h2.8
		c0.9,0,1.6-0.3,2.2-0.9c0.6-0.6,0.9-1.3,0.9-2.2s-0.3-1.6-0.9-2.2c-0.6-0.6-1.3-0.9-2.2-0.9L298.9,411.8L298.9,411.8z"/>
	<path class="st4" d="M312.4,416.3h5.8v2.7h-5.8v4.5h7.2v2.7h-9.9v-17.1h9.9v2.7h-7.2V416.3z"/>
	<path class="st4" d="M324.5,416.3h5.8v2.7h-5.8v4.5h7.2v2.7h-9.9v-17.1h9.9v2.7h-7.2V416.3z"/>
	<path class="st4" d="M336.6,409.2v5.6l-0.6,5.6h-1.6l-0.6-5.6v-5.6H336.6z M336.6,423.5v2.7h-2.7v-2.7H336.6z"/>
	<path class="st4" d="M342,409.2v5.6l-0.6,5.6h-1.6l-0.6-5.6v-5.6H342z M342,423.5v2.7h-2.7v-2.7H342z"/>
	<path class="st4" d="M347.4,409.2v5.6l-0.6,5.6h-1.6l-0.6-5.6v-5.6H347.4z M347.4,423.5v2.7h-2.7v-2.7H347.4z"/>
	<path class="st4" d="M352.8,409.2v5.6l-0.6,5.6h-1.6l-0.6-5.6v-5.6H352.8z M352.8,423.5v2.7h-2.7v-2.7H352.8z"/>
	<path class="st4" d="M358.1,409.2v5.6l-0.6,5.6H356l-0.6-5.6v-5.6H358.1z M358.1,423.5v2.7h-2.7v-2.7H358.1z"/>
	<path class="st4" d="M363.5,409.2v5.6l-0.6,5.6h-1.6l-0.6-5.6v-5.6H363.5z M363.5,423.5v2.7h-2.7v-2.7H363.5z"/>
</g>
<g>
	<path class="st4" d="M387.5,417.6l-7.9-3.2v-3.1l11.8,4.8v2.9l-11.8,4.8v-3L387.5,417.6z"/>
</g>
<g>
	<path class="st12" d="M100.8,150c21,0,38.9,7.4,53.9,22.3c14.9,14.9,22.3,32.8,22.3,53.8c0,21-7.4,38.9-22.3,53.8
		c-14.9,14.9-32.9,22.4-53.9,22.4H59.9V150H100.8z M83.9,174v104.2h16.8c14.3,0,26.6-5.1,36.8-15.3s15.3-22.5,15.3-36.8
		c0-14.3-5.1-26.5-15.3-36.7S115.1,174,100.8,174L83.9,174L83.9,174z"/>
	<path class="st12" d="M221,214h51.6v24H221v40.1h63.9v24H197V149.9h87.9v23.9H221L221,214L221,214z"/>
	<path class="st12" d="M332.9,274.1l-12,28.1h-26L361,146.8l66.3,155.5h-26.1l-12-28.1H332.9z M379.6,251.7L361,208l-18.6,43.6
		H379.6z"/>
	<path class="st12" d="M465.2,150v128.2h83.2v24H441.3V150H465.2z"/>
	<path class="st12" d="M86.2,338c4.1,4.2,6.1,9.3,6.1,15.4c0,6-2,11.2-6.1,15.4c-4.1,4.2-9.1,6.3-15,6.3c-5.9,0-10.9-2.1-15-6.3
		c-4.1-4.2-6.1-9.3-6.1-15.4c0-6.1,2-11.2,6.1-15.4c4.1-4.2,9.1-6.3,15-6.3C77.2,331.7,82.2,333.8,86.2,338z M71.2,338.3
		c-4.1,0-7.5,1.4-10.3,4.3c-2.8,2.9-4.2,6.5-4.2,10.8s1.4,7.9,4.2,10.8c2.8,2.9,6.2,4.3,10.3,4.3c4.1,0,7.5-1.4,10.3-4.3
		c2.8-2.9,4.2-6.5,4.2-10.8s-1.4-7.9-4.2-10.8C78.8,339.7,75.3,338.3,71.2,338.3z"/>
	<path class="st12" d="M104.4,350.2h14.7v6.6h-14.7v17.5h-6.6v-41.6h24.7v6.6h-18.1L104.4,350.2L104.4,350.2z"/>
	<path class="st12" d="M139.9,332.6H169v6.6h-11.3v35h-6.6v-35h-11.3L139.9,332.6L139.9,332.6z"/>
	<path class="st12" d="M208.1,332.6v41.6h-6.6v-17.5h-22v17.5h-6.6v-41.6h6.6v17.5h22v-17.5H208.1z"/>
	<path class="st12" d="M221.2,350.1h14.1v6.6h-14.1v11h17.4v6.6h-24v-41.6h24v6.5h-17.4L221.2,350.1L221.2,350.1z"/>
	<path class="st12" d="M284.9,339.2c-1.5-0.6-3.2-0.9-4.9-0.9c-4.1,0-7.6,1.4-10.4,4.3c-2.9,2.9-4.3,6.5-4.3,10.8
		c0,4.2,1.4,7.8,4.3,10.7c2.8,2.9,6.3,4.3,10.4,4.3c1.8,0,3.4-0.3,4.9-0.9c1.5-0.6,2.9-1.4,4.3-2.5l4.2,5.1
		c-1.9,1.6-3.9,2.8-6.1,3.6c-2.3,0.9-4.7,1.3-7.3,1.3c-5.9,0-11-2.1-15.1-6.3c-4.1-4.2-6.2-9.3-6.2-15.3s2.1-11.1,6.2-15.4
		c4.1-4.2,9.1-6.3,15.1-6.3c2.5,0,5,0.4,7.3,1.3c2.1,0.8,4.2,2,6.1,3.6l-4.2,5.1C287.8,340.6,286.4,339.8,284.9,339.2z"/>
	<path class="st12" d="M305.4,350.1h14.1v6.6h-14.1v11h17.4v6.6h-24v-41.6h24v6.5h-17.4L305.4,350.1L305.4,350.1z"/>
	<path class="st12" d="M328.3,374.2v-42.1l29.2,27.7v-27.2h6.6v42.5l-29.2-27.7v26.8H328.3z"/>
	<path class="st12" d="M367.8,332.6H397v6.6h-11.3v35h-6.6v-35h-11.3L367.8,332.6L367.8,332.6z"/>
	<path class="st12" d="M432.8,332.6v26.5c0,4.4-1.6,8.2-4.7,11.3c-3.1,3.1-6.9,4.7-11.3,4.7c-4.4,0-8.1-1.6-11.3-4.7
		c-3.1-3.1-4.7-6.9-4.7-11.3v-26.5h6.6v26.5c0,2.6,0.9,4.8,2.8,6.7c1.9,1.8,4.1,2.8,6.6,2.8c2.6,0,4.8-0.9,6.7-2.8
		c1.8-1.9,2.8-4.1,2.8-6.7v-26.5H432.8z"/>
	<path class="st12" d="M459.7,374.2l-8.7-13.3h-5.1v13.3h-6.6v-41.6h13.4c3.9,0,7.2,1.4,10,4.1c2.8,2.8,4.2,6.1,4.2,10
		c0,3.9-1.4,7.2-4.2,10c-1.3,1.3-2.9,2.4-4.6,3.1l9.4,14.4L459.7,374.2L459.7,374.2z M445.9,339.2v15.1h6.8c2.1,0,3.9-0.7,5.3-2.2
		c1.5-1.5,2.2-3.3,2.2-5.3s-0.7-3.9-2.2-5.3c-1.5-1.5-3.3-2.2-5.3-2.2H445.9z"/>
	<path class="st12" d="M509.7,332.6l-16.9,28.2v13.4h-6.6v-13.4l-17-28.2h7.6l12.6,20.9l12.6-20.9L509.7,332.6L509.7,332.6z"/>
	<path class="st12" d="M520.1,332.8v13.7l-1.4,13.8h-3.8l-1.4-13.8v-13.7H520.1z M520.1,367.7v6.6h-6.6v-6.6H520.1z"/>
	<path class="st12" d="M533.2,332.8v13.7l-1.4,13.8H528l-1.4-13.8v-13.7H533.2z M533.2,367.7v6.6h-6.6v-6.6H533.2z"/>
	<path class="st12" d="M546.3,332.8v13.7l-1.4,13.8h-3.8l-1.4-13.8v-13.7H546.3z M546.3,367.7v6.6h-6.6v-6.6H546.3z"/>
</g>
<rect x="7.2" y="503.3" class="st4" width="241.1" height="280.8"/>
<g>
	<path d="M21.9,534.7h7.6v2.2h-7.6v7.1h9.2v2.2H19.7v-20.7h11.4v2.2h-9.2V534.7z"/>
	<path d="M35.8,525.4V544h11.9v2.2h-14v-20.7L35.8,525.4L35.8,525.4z"/>
	<path d="M51.9,534.7h7.6v2.2h-7.6v7.1h9.2v2.2H49.8v-20.7h11.4v2.2h-9.2V534.7z"/>
	<path d="M76.8,527.7c-0.9-0.3-1.8-0.5-2.8-0.5c-2.4,0-4.4,0.8-6,2.5c-1.7,1.7-2.5,3.7-2.5,6.2s0.8,4.5,2.5,6.2
		c1.6,1.7,3.6,2.5,6,2.5c1,0,1.9-0.2,2.8-0.5c0.8-0.3,1.7-0.8,2.4-1.4l1.4,1.7c-1,0.8-2,1.4-3,1.8c-1.1,0.4-2.4,0.7-3.6,0.7
		c-3,0-5.5-1-7.5-3.1c-2.1-2.1-3.1-4.7-3.1-7.7c0-3,1-5.6,3.1-7.7C68.5,526,71,525,74,525c1.3,0,2.5,0.2,3.6,0.7
		c1.1,0.4,2.1,1,3,1.8l-1.4,1.7C78.5,528.5,77.7,528,76.8,527.7z"/>
	<path d="M81.9,525.4h13.1v2.2h-5.5v18.5h-2.2v-18.5h-5.5L81.9,525.4L81.9,525.4z"/>
	<path d="M108.6,546.1l-4.7-7.2h-4.8v7.2H97v-20.7h7.8c1.9,0,3.4,0.7,4.8,2c1.3,1.3,2,2.9,2,4.8c0,1.9-0.7,3.5-2,4.8
		c-0.9,0.9-1.9,1.5-3.1,1.8l4.8,7.4L108.6,546.1C108.6,546.1,108.6,546.1,108.6,546.1z M99.2,527.6v9.2h5.6c1.3,0,2.3-0.5,3.2-1.4
		c0.9-0.9,1.4-2,1.4-3.2c0-1.3-0.5-2.3-1.4-3.2c-0.9-0.9-2-1.3-3.2-1.3L99.2,527.6L99.2,527.6z"/>
	<path d="M131.4,528.1c2,2.1,3.1,4.7,3.1,7.7c0,3-1,5.6-3.1,7.7c-2,2.1-4.5,3.1-7.5,3.1c-2.9,0-5.4-1-7.5-3.1c-2-2.1-3-4.7-3-7.7
		c0-3,1-5.6,3-7.7c2-2.1,4.5-3.1,7.5-3.1S129.3,526.1,131.4,528.1z M123.9,527.2c-2.3,0-4.3,0.8-5.9,2.5c-1.6,1.7-2.4,3.7-2.4,6.2
		c0,2.4,0.8,4.5,2.4,6.2c1.6,1.6,3.6,2.5,5.9,2.5c2.3,0,4.3-0.8,5.9-2.5c1.6-1.7,2.4-3.7,2.4-6.2c0-2.4-0.8-4.5-2.4-6.2
		C128.2,528,126.2,527.2,123.9,527.2z"/>
	<path d="M137.1,546.1v-20.9l14.5,15.8v-15.6h2.2v21.2l-14.5-15.8v15.3L137.1,546.1L137.1,546.1z"/>
	<path d="M160.4,525.4v20.7h-2.2v-20.7H160.4z"/>
	<path d="M178,527.7c-0.9-0.3-1.8-0.5-2.8-0.5c-2.4,0-4.4,0.8-6,2.5c-1.6,1.7-2.5,3.7-2.5,6.2s0.8,4.5,2.5,6.2
		c1.6,1.7,3.6,2.5,6,2.5c1,0,1.9-0.2,2.8-0.5c0.8-0.3,1.7-0.8,2.4-1.4l1.4,1.7c-1,0.8-2,1.4-3,1.8c-1.1,0.4-2.4,0.7-3.6,0.7
		c-3,0-5.5-1-7.5-3.1c-2.1-2.1-3.1-4.7-3.1-7.7c0-3,1-5.6,3.1-7.7s4.6-3.2,7.5-3.2c1.3,0,2.5,0.2,3.6,0.7c1.1,0.4,2.1,1,3,1.8
		l-1.4,1.7C179.6,528.5,178.8,528,178,527.7z"/>
	<path d="M187.4,543.5c0.8,0.6,1.7,0.9,2.7,0.9c1.1,0,2.1-0.4,2.9-1.2c0.8-0.7,1.2-1.6,1.2-2.6c0-1.3-0.4-2.2-1.3-2.8
		c-0.5-0.4-1.4-0.7-2.8-1c-1.9-0.5-3.2-1-3.9-1.5c-1.2-0.9-1.8-2.4-1.8-4.4c0-1.6,0.6-3.1,1.8-4.2c1.2-1.2,2.6-1.7,4.2-1.7
		c1.1,0,2.1,0.3,3.1,0.9s1.7,1.4,2.2,2.4l-1.9,1c-0.3-0.6-0.8-1.1-1.4-1.5c-0.6-0.4-1.3-0.6-2-0.6c-1,0-1.9,0.4-2.7,1.1
		c-0.7,0.7-1.1,1.6-1.1,2.7c0,1.3,0.4,2.2,1.3,2.8c0.5,0.4,1.4,0.7,2.8,1c1.9,0.5,3.2,1,3.9,1.5c1.2,0.9,1.8,2.4,1.8,4.4
		c0,1.6-0.6,3-1.9,4.2c-1.3,1.2-2.7,1.8-4.4,1.8c-1.4,0-2.8-0.4-3.9-1.3c-1.2-0.9-2-2-2.2-3.4l2.1-0.5
		C186.1,542.3,186.6,543,187.4,543.5z"/>
</g>
<rect x="7.2" y="503.3" class="st13" width="241.1" height="280.8"/>
<g>
	<path class="st4" d="M21.9,534.7h7.6v2.2h-7.6v7.1h9.2v2.2H19.7v-20.7h11.4v2.2h-9.2V534.7z"/>
	<path class="st4" d="M35.8,525.4V544h11.9v2.2h-14v-20.7L35.8,525.4L35.8,525.4z"/>
	<path class="st4" d="M51.9,534.7h7.6v2.2h-7.6v7.1h9.2v2.2H49.8v-20.7h11.4v2.2h-9.2V534.7z"/>
	<path class="st4" d="M76.8,527.7c-0.9-0.3-1.8-0.5-2.8-0.5c-2.4,0-4.4,0.8-6,2.5c-1.7,1.7-2.5,3.7-2.5,6.2s0.8,4.5,2.5,6.2
		c1.6,1.7,3.6,2.5,6,2.5c1,0,1.9-0.2,2.8-0.5c0.8-0.3,1.7-0.8,2.4-1.4l1.4,1.7c-1,0.8-2,1.4-3,1.8c-1.1,0.4-2.4,0.7-3.6,0.7
		c-3,0-5.5-1-7.5-3.1c-2.1-2.1-3.1-4.7-3.1-7.7c0-3,1-5.6,3.1-7.7C68.5,526,71,525,74,525c1.3,0,2.5,0.2,3.6,0.7
		c1.1,0.4,2.1,1,3,1.8l-1.4,1.7C78.5,528.5,77.7,528,76.8,527.7z"/>
	<path class="st4" d="M81.9,525.4h13.1v2.2h-5.5v18.5h-2.2v-18.5h-5.5L81.9,525.4L81.9,525.4z"/>
	<path class="st4" d="M108.6,546.1l-4.7-7.2h-4.8v7.2H97v-20.7h7.8c1.9,0,3.4,0.7,4.8,2c1.3,1.3,2,2.9,2,4.8c0,1.9-0.7,3.5-2,4.8
		c-0.9,0.9-1.9,1.5-3.1,1.8l4.8,7.4L108.6,546.1C108.6,546.1,108.6,546.1,108.6,546.1z M99.2,527.6v9.2h5.6c1.3,0,2.3-0.5,3.2-1.4
		c0.9-0.9,1.4-2,1.4-3.2c0-1.3-0.5-2.3-1.4-3.2c-0.9-0.9-2-1.3-3.2-1.3L99.2,527.6L99.2,527.6z"/>
	<path class="st4" d="M131.4,528.1c2,2.1,3.1,4.7,3.1,7.7c0,3-1,5.6-3.1,7.7c-2,2.1-4.5,3.1-7.5,3.1c-2.9,0-5.4-1-7.5-3.1
		c-2-2.1-3-4.7-3-7.7c0-3,1-5.6,3-7.7c2-2.1,4.5-3.1,7.5-3.1S129.3,526.1,131.4,528.1z M123.9,527.2c-2.3,0-4.3,0.8-5.9,2.5
		c-1.6,1.7-2.4,3.7-2.4,6.2c0,2.4,0.8,4.5,2.4,6.2c1.6,1.6,3.6,2.5,5.9,2.5c2.3,0,4.3-0.8,5.9-2.5c1.6-1.7,2.4-3.7,2.4-6.2
		c0-2.4-0.8-4.5-2.4-6.2C128.2,528,126.2,527.2,123.9,527.2z"/>
	<path class="st4" d="M137.1,546.1v-20.9l14.5,15.8v-15.6h2.2v21.2l-14.5-15.8v15.3L137.1,546.1L137.1,546.1z"/>
	<path class="st4" d="M160.4,525.4v20.7h-2.2v-20.7H160.4z"/>
	<path class="st4" d="M178,527.7c-0.9-0.3-1.8-0.5-2.8-0.5c-2.4,0-4.4,0.8-6,2.5c-1.6,1.7-2.5,3.7-2.5,6.2s0.8,4.5,2.5,6.2
		c1.6,1.7,3.6,2.5,6,2.5c1,0,1.9-0.2,2.8-0.5c0.8-0.3,1.7-0.8,2.4-1.4l1.4,1.7c-1,0.8-2,1.4-3,1.8c-1.1,0.4-2.4,0.7-3.6,0.7
		c-3,0-5.5-1-7.5-3.1c-2.1-2.1-3.1-4.7-3.1-7.7c0-3,1-5.6,3.1-7.7s4.6-3.2,7.5-3.2c1.3,0,2.5,0.2,3.6,0.7c1.1,0.4,2.1,1,3,1.8
		l-1.4,1.7C179.6,528.5,178.8,528,178,527.7z"/>
	<path class="st4" d="M187.4,543.5c0.8,0.6,1.7,0.9,2.7,0.9c1.1,0,2.1-0.4,2.9-1.2c0.8-0.7,1.2-1.6,1.2-2.6c0-1.3-0.4-2.2-1.3-2.8
		c-0.5-0.4-1.4-0.7-2.8-1c-1.9-0.5-3.2-1-3.9-1.5c-1.2-0.9-1.8-2.4-1.8-4.4c0-1.6,0.6-3.1,1.8-4.2c1.2-1.2,2.6-1.7,4.2-1.7
		c1.1,0,2.1,0.3,3.1,0.9s1.7,1.4,2.2,2.4l-1.9,1c-0.3-0.6-0.8-1.1-1.4-1.5c-0.6-0.4-1.3-0.6-2-0.6c-1,0-1.9,0.4-2.7,1.1
		c-0.7,0.7-1.1,1.6-1.1,2.7c0,1.3,0.4,2.2,1.3,2.8c0.5,0.4,1.4,0.7,2.8,1c1.9,0.5,3.2,1,3.9,1.5c1.2,0.9,1.8,2.4,1.8,4.4
		c0,1.6-0.6,3-1.9,4.2c-1.3,1.2-2.7,1.8-4.4,1.8c-1.4,0-2.8-0.4-3.9-1.3c-1.2-0.9-2-2-2.2-3.4l2.1-0.5
		C186.1,542.3,186.6,543,187.4,543.5z"/>
</g>
<g>
	<g>
		<rect id="XMLID_2_" x="7" y="598" class="st2" width="241.3" height="186"/>
	</g>
	<g>
		<g>
			<defs>
				<rect id="SVGID_3_" x="7" y="598" width="241.3" height="186"/>
			</defs>
			<clipPath id="SVGID_4_">
				<use xlink:href="#SVGID_3_"  style="overflow:visible;"/>
			</clipPath>
			<g transform="matrix(1 0 0 1 -4.768372e-07 0)" class="st14">
			</g>
		</g>
	</g>
</g>
<path class="st10" d="M189.5,768.8H52.7c-8,0-14.6-6.6-14.6-14.6v-9.1c0-8,6.6-14.6,14.6-14.6h136.8c8,0,14.6,6.6,14.6,14.6v9.1
	C204.1,762.2,197.6,768.8,189.5,768.8z"/>
<g>
	<path class="st4" d="M111.6,742.9c0.5,0.7,0.7,1.5,0.7,2.4c0,1-0.2,1.7-0.7,2.3c-0.3,0.3-0.7,0.6-1.2,0.9c0.8,0.3,1.4,0.8,1.8,1.4
		c0.4,0.6,0.6,1.4,0.6,2.3c0,0.9-0.2,1.8-0.7,2.5c-0.3,0.5-0.7,0.9-1.1,1.2c-0.5,0.4-1.1,0.7-1.8,0.8c-0.7,0.1-1.4,0.2-2.2,0.2h-7.1
		v-15.8h7.7C109.4,741.3,110.8,741.8,111.6,742.9z M103,744v3.5h3.8c0.7,0,1.2-0.1,1.7-0.4s0.6-0.7,0.6-1.4c0-0.7-0.3-1.2-0.9-1.5
		c-0.5-0.2-1.1-0.2-1.9-0.2L103,744L103,744z M103,750.1v4.2h3.8c0.7,0,1.2-0.1,1.6-0.3c0.7-0.3,1-1,1-2c0-0.8-0.3-1.4-1-1.7
		c-0.4-0.2-0.9-0.3-1.6-0.3H103z"/>
	<path class="st4" d="M115.7,741.2h3.4v9.7c0,1.1,0.1,1.9,0.4,2.4c0.4,0.9,1.3,1.3,2.6,1.3c1.3,0,2.2-0.4,2.6-1.3
		c0.3-0.5,0.4-1.3,0.4-2.4v-9.7h3.4v9.7c0,1.7-0.3,3-0.8,3.9c-1,1.7-2.8,2.6-5.6,2.6c-2.7,0-4.6-0.9-5.6-2.6
		c-0.5-0.9-0.8-2.2-0.8-3.9L115.7,741.2L115.7,741.2z"/>
	<path class="st4" d="M140.6,741.2h3.7l-5.3,9.9v5.9h-3.3v-5.9l-5.5-9.9h3.9l3.3,6.9L140.6,741.2z"/>
</g>
<g>
	<path class="st15" d="M52.7,766.2c-6.7,0-12.1-5.4-12.1-12.1v-9.1c0-6.7,5.4-12.1,12.1-12.1h136.8c6.7,0,12.1,5.4,12.1,12.1v9.1
		c0,6.7-5.4,12.1-12.1,12.1H52.7z"/>
	<path class="st10" d="M189.5,735.5c5.3,0,9.6,4.3,9.6,9.6v9.1c0,5.3-4.3,9.6-9.6,9.6H52.7c-5.3,0-9.6-4.3-9.6-9.6v-9.1
		c0-5.3,4.3-9.6,9.6-9.6H189.5 M189.5,730.5H52.7c-8,0-14.6,6.6-14.6,14.6v9.1c0,8,6.6,14.6,14.6,14.6h136.8c8,0,14.6-6.6,14.6-14.6
		v-9.1C204.1,737.1,197.6,730.5,189.5,730.5L189.5,730.5z"/>
</g>
<g>
	<path class="st10" d="M111.6,742.9c0.5,0.7,0.7,1.5,0.7,2.4c0,1-0.2,1.7-0.7,2.3c-0.3,0.3-0.7,0.6-1.2,0.9c0.8,0.3,1.4,0.8,1.8,1.4
		c0.4,0.6,0.6,1.4,0.6,2.3c0,0.9-0.2,1.8-0.7,2.5c-0.3,0.5-0.7,0.9-1.1,1.2c-0.5,0.4-1.1,0.7-1.8,0.8c-0.7,0.1-1.4,0.2-2.2,0.2h-7.1
		v-15.8h7.7C109.4,741.3,110.8,741.8,111.6,742.9z M103,744v3.5h3.8c0.7,0,1.2-0.1,1.7-0.4s0.6-0.7,0.6-1.4c0-0.7-0.3-1.2-0.9-1.5
		c-0.5-0.2-1.1-0.2-1.9-0.2L103,744L103,744z M103,750.1v4.2h3.8c0.7,0,1.2-0.1,1.6-0.3c0.7-0.3,1-1,1-2c0-0.8-0.3-1.4-1-1.7
		c-0.4-0.2-0.9-0.3-1.6-0.3H103z"/>
	<path class="st10" d="M115.7,741.2h3.4v9.7c0,1.1,0.1,1.9,0.4,2.4c0.4,0.9,1.3,1.3,2.6,1.3c1.3,0,2.2-0.4,2.6-1.3
		c0.3-0.5,0.4-1.3,0.4-2.4v-9.7h3.4v9.7c0,1.7-0.3,3-0.8,3.9c-1,1.7-2.8,2.6-5.6,2.6c-2.7,0-4.6-0.9-5.6-2.6
		c-0.5-0.9-0.8-2.2-0.8-3.9L115.7,741.2L115.7,741.2z"/>
	<path class="st10" d="M140.6,741.2h3.7l-5.3,9.9v5.9h-3.3v-5.9l-5.5-9.9h3.9l3.3,6.9L140.6,741.2z"/>
</g>
<rect x="259" y="503.3" class="st13" width="241.1" height="280.8"/>
<g>
	<path class="st4" d="M285.6,527.7c-0.9-0.3-1.8-0.5-2.8-0.5c-2.4,0-4.4,0.8-6,2.5c-1.6,1.7-2.5,3.7-2.5,6.2s0.8,4.5,2.5,6.2
		c1.6,1.7,3.6,2.5,6,2.5c1,0,1.9-0.2,2.8-0.5c0.8-0.3,1.7-0.8,2.4-1.4l1.4,1.7c-1,0.8-2,1.4-3,1.8c-1.1,0.4-2.4,0.7-3.6,0.7
		c-3,0-5.5-1-7.5-3.1c-2.1-2.1-3.1-4.7-3.1-7.7c0-3,1-5.6,3.1-7.7c2.1-2.1,4.6-3.2,7.5-3.2c1.3,0,2.5,0.2,3.6,0.7
		c1.1,0.4,2.1,1,3,1.8l-1.4,1.7C287.3,528.5,286.5,528,285.6,527.7z"/>
	<path class="st4" d="M309.3,528.1c2,2.1,3,4.7,3,7.7c0,3-1,5.6-3,7.7c-2,2.1-4.5,3.1-7.5,3.1s-5.4-1-7.5-3.1c-2-2.1-3-4.7-3-7.7
		c0-3,1-5.6,3-7.7c2-2.1,4.5-3.1,7.5-3.1S307.3,526.1,309.3,528.1z M301.8,527.2c-2.3,0-4.3,0.8-5.9,2.5c-1.6,1.7-2.4,3.7-2.4,6.2
		c0,2.4,0.8,4.5,2.4,6.2c1.6,1.6,3.6,2.5,5.9,2.5c2.3,0,4.3-0.8,5.9-2.5c1.6-1.7,2.4-3.7,2.4-6.2c0-2.4-0.8-4.5-2.4-6.2
		C306.1,528,304.2,527.2,301.8,527.2z"/>
	<path class="st4" d="M315.1,546.1V525l11.2,16.8l11.2-16.8v21.2h-2.2v-14l-9,13.6l-9-13.6v14H315.1z"/>
	<path class="st4" d="M346.7,525.4c1.9,0,3.4,0.7,4.8,2c1.3,1.3,2,2.9,2,4.8c0,1.9-0.7,3.5-2,4.8c-1.3,1.3-2.9,2-4.8,2h-3.8v7.2
		h-2.2v-20.7L346.7,525.4L346.7,525.4L346.7,525.4z M342.9,527.6v9.1h3.8c1.2,0,2.3-0.5,3.2-1.4c0.9-0.9,1.3-2,1.3-3.2
		c0-1.2-0.4-2.3-1.3-3.2c-0.9-0.9-2-1.3-3.2-1.3L342.9,527.6L342.9,527.6z"/>
	<path class="st4" d="M371.2,525.4V539c0,2.1-0.8,3.9-2.3,5.4c-1.5,1.5-3.3,2.2-5.4,2.2c-2.1,0-3.9-0.7-5.4-2.2
		c-1.5-1.5-2.2-3.3-2.2-5.4v-13.5h2.2V539c0,1.5,0.5,2.8,1.6,3.9c1.1,1.1,2.4,1.6,3.9,1.6s2.8-0.5,3.9-1.6c1.1-1.1,1.6-2.4,1.6-3.9
		v-13.5H371.2z"/>
	<path class="st4" d="M373.1,525.4h13.1v2.2h-5.5v18.5h-2.2v-18.5h-5.5L373.1,525.4L373.1,525.4z"/>
	<path class="st4" d="M390.3,534.7h7.6v2.2h-7.6v7.1h9.2v2.2h-11.4v-20.7h11.4v2.2h-9.2L390.3,534.7L390.3,534.7z"/>
	<path class="st4" d="M413.7,546.1l-4.7-7.2h-4.8v7.2H402v-20.7h7.8c1.9,0,3.5,0.7,4.8,2c1.3,1.3,2,2.9,2,4.8c0,1.9-0.7,3.5-2,4.8
		c-0.9,0.9-1.9,1.5-3.1,1.8l4.8,7.4L413.7,546.1L413.7,546.1L413.7,546.1z M404.2,527.6v9.2h5.6c1.3,0,2.3-0.5,3.2-1.4
		c0.9-0.9,1.4-2,1.4-3.2c0-1.3-0.5-2.3-1.4-3.2c-0.9-0.9-2-1.3-3.2-1.3L404.2,527.6L404.2,527.6z"/>
	<path class="st4" d="M421.9,543.5c0.8,0.6,1.7,0.9,2.7,0.9c1.1,0,2.1-0.4,2.9-1.2c0.8-0.7,1.2-1.6,1.2-2.6c0-1.3-0.4-2.2-1.3-2.8
		c-0.5-0.4-1.4-0.7-2.8-1c-1.9-0.5-3.2-1-3.9-1.5c-1.2-0.9-1.8-2.4-1.8-4.4c0-1.6,0.6-3.1,1.8-4.2c1.2-1.2,2.6-1.7,4.2-1.7
		c1.1,0,2.1,0.3,3.1,0.9s1.7,1.4,2.2,2.4l-1.9,1c-0.3-0.6-0.8-1.1-1.4-1.5c-0.6-0.4-1.3-0.6-2-0.6c-1,0-1.9,0.4-2.7,1.1
		c-0.7,0.7-1.1,1.6-1.1,2.7c0,1.3,0.4,2.2,1.3,2.8c0.5,0.4,1.4,0.7,2.8,1c1.9,0.5,3.2,1,3.9,1.5c1.2,0.9,1.8,2.4,1.8,4.4
		c0,1.6-0.6,3-1.9,4.2c-1.3,1.2-2.7,1.8-4.4,1.8c-1.4,0-2.8-0.4-4-1.3c-1.2-0.9-2-2-2.2-3.4l2.1-0.5
		C420.7,542.3,421.1,543,421.9,543.5z"/>
	<path class="st4" d="M454.1,544l-0.3-0.3c-0.1,0.2-0.3,0.3-0.4,0.5c-1.7,1.7-3.6,2.6-5.7,2.6c-1.9,0-3.4-0.5-4.6-1.5
		c-0.9-0.7-1.4-1.7-1.6-2.8c-0.2-1.1-0.1-2.2,0.3-3.3c0.6-1.6,1.8-3.1,3.6-4.4c-0.9-1-1.5-1.9-1.8-2.4c-0.4-0.8-0.6-1.8-0.6-2.8
		c0-1.3,0.5-2.3,1.4-3.1c0.9-0.8,2-1.2,3.3-1.2c1.4,0,2.5,0.4,3.5,1.2c0.9,0.8,1.4,1.9,1.4,3.3c0,1.3-0.5,2.6-1.6,3.8
		c-0.6,0.6-1.3,1.2-2.3,1.8c1.2,1.4,2.8,3,4.7,5c0.3-0.7,0.6-1.6,0.7-2.5l2.1,0.4c-0.2,1.4-0.6,2.6-1.2,3.7l0.6,0.6
		c1.3,1.2,2.1,2.1,2.5,2.5l-1.6,1.5C456.1,546,455.3,545.2,454.1,544z M446.7,536.4c-1.5,1-2.5,2.2-3,3.4c-0.3,0.7-0.4,1.4-0.2,2.1
		c0.1,0.6,0.4,1.1,0.9,1.6c0.8,0.7,1.8,1,3.2,1c1.5,0,2.9-0.6,4.1-1.9c0.1-0.2,0.3-0.3,0.4-0.5C449.9,539.9,448.1,538,446.7,536.4z
		 M447.2,533.6c0.9-0.6,1.6-1.1,2.1-1.6c0.7-0.8,1.1-1.5,1-2.2c0-0.7-0.2-1.3-0.7-1.7c-0.5-0.5-1.1-0.7-1.9-0.7
		c-0.8,0-1.4,0.2-1.9,0.7c-0.4,0.4-0.6,0.9-0.7,1.6c0,1,0.6,2.3,2,3.9L447.2,533.6z"/>
	<path class="st4" d="M284.3,574.5h-8.8l-2.2,5.3h-2.4l9-21.2l9,21.2h-2.4L284.3,574.5z M283.4,572.4l-3.5-8.3l-3.5,8.3H283.4z"/>
	<path class="st4" d="M303.2,561.3c-0.9-0.3-1.8-0.5-2.8-0.5c-2.4,0-4.4,0.8-6,2.5c-1.6,1.7-2.5,3.7-2.5,6.2c0,2.4,0.8,4.5,2.5,6.2
		c1.6,1.7,3.6,2.5,6,2.5c1,0,1.9-0.2,2.8-0.5c0.8-0.3,1.7-0.8,2.4-1.4l1.4,1.7c-1,0.8-2,1.4-3,1.8c-1.1,0.4-2.4,0.7-3.6,0.7
		c-3,0-5.5-1-7.5-3.1c-2.1-2.1-3.1-4.7-3.1-7.7c0-3,1-5.6,3.1-7.7c2.1-2.1,4.6-3.2,7.5-3.2c1.3,0,2.5,0.2,3.6,0.7
		c1.1,0.4,2.1,1,3,1.8l-1.4,1.7C304.9,562.1,304.1,561.6,303.2,561.3z"/>
	<path class="st4" d="M322.9,561.3c-0.9-0.3-1.8-0.5-2.8-0.5c-2.4,0-4.4,0.8-6,2.5c-1.6,1.7-2.5,3.7-2.5,6.2c0,2.4,0.8,4.5,2.5,6.2
		c1.6,1.7,3.6,2.5,6,2.5c1,0,1.9-0.2,2.8-0.5c0.8-0.3,1.7-0.8,2.4-1.4l1.4,1.7c-1,0.8-2,1.4-3,1.8c-1.1,0.4-2.4,0.7-3.6,0.7
		c-3,0-5.5-1-7.5-3.1c-2.1-2.1-3.1-4.7-3.1-7.7c0-3,1-5.6,3.1-7.7c2.1-2.1,4.6-3.2,7.5-3.2c1.3,0,2.5,0.2,3.6,0.7
		c1.1,0.4,2.1,1,3,1.8l-1.4,1.7C324.6,562.1,323.8,561.6,322.9,561.3z"/>
	<path class="st4" d="M331.6,568.3h7.6v2.2h-7.6v7.1h9.2v2.2h-11.4V559h11.4v2.2h-9.2L331.6,568.3L331.6,568.3z"/>
	<path class="st4" d="M346.2,577.1c0.8,0.6,1.7,0.9,2.7,0.9c1.1,0,2.1-0.4,2.9-1.2c0.8-0.7,1.2-1.6,1.2-2.6c0-1.3-0.4-2.2-1.3-2.8
		c-0.5-0.4-1.4-0.7-2.8-1c-1.9-0.5-3.2-1-3.9-1.5c-1.2-0.9-1.8-2.4-1.8-4.4c0-1.6,0.6-3.1,1.8-4.2c1.2-1.2,2.6-1.7,4.2-1.7
		c1.1,0,2.1,0.3,3.1,0.9s1.7,1.4,2.2,2.4l-1.9,1c-0.3-0.6-0.8-1.1-1.4-1.5c-0.6-0.4-1.3-0.6-2-0.6c-1,0-1.9,0.4-2.7,1.1
		c-0.7,0.7-1.1,1.6-1.1,2.7c0,1.3,0.4,2.2,1.3,2.8c0.5,0.4,1.4,0.7,2.8,1c1.9,0.5,3.2,1,3.9,1.5c1.2,0.9,1.8,2.4,1.8,4.4
		c0,1.6-0.6,3-1.9,4.2c-1.3,1.2-2.7,1.8-4.4,1.8c-1.4,0-2.8-0.4-4-1.3c-1.2-0.9-2-2-2.2-3.4l2.1-0.5
		C344.9,575.9,345.4,576.6,346.2,577.1z"/>
	<path class="st4" d="M360.8,577.1c0.8,0.6,1.7,0.9,2.7,0.9c1.1,0,2.1-0.4,2.9-1.2c0.8-0.7,1.2-1.6,1.2-2.6c0-1.3-0.4-2.2-1.3-2.8
		c-0.5-0.4-1.4-0.7-2.8-1c-1.9-0.5-3.2-1-3.9-1.5c-1.2-0.9-1.8-2.4-1.8-4.4c0-1.6,0.6-3.1,1.8-4.2c1.2-1.2,2.6-1.7,4.2-1.7
		c1.1,0,2.1,0.3,3.1,0.9s1.7,1.4,2.2,2.4l-1.9,1c-0.3-0.6-0.8-1.1-1.4-1.5c-0.6-0.4-1.3-0.6-2-0.6c-1,0-1.9,0.4-2.7,1.1
		c-0.7,0.7-1.1,1.6-1.1,2.7c0,1.3,0.4,2.2,1.3,2.8c0.5,0.4,1.4,0.7,2.8,1c1.9,0.5,3.2,1,3.9,1.5c1.2,0.9,1.8,2.4,1.8,4.4
		c0,1.6-0.6,3-1.9,4.2c-1.3,1.2-2.7,1.8-4.4,1.8c-1.4,0-2.8-0.4-4-1.3c-1.2-0.9-2-2-2.2-3.4l2.1-0.5
		C359.5,575.9,360,576.6,360.8,577.1z"/>
	<path class="st4" d="M389.8,561.7c2,2.1,3,4.7,3,7.7c0,3-1,5.6-3,7.7c-2,2.1-4.5,3.1-7.5,3.1c-2.9,0-5.4-1-7.5-3.1
		c-2-2.1-3-4.7-3-7.7c0-3,1-5.6,3-7.7c2-2.1,4.5-3.1,7.5-3.1C385.3,558.6,387.8,559.7,389.8,561.7z M382.4,560.8
		c-2.3,0-4.3,0.8-5.9,2.5c-1.6,1.7-2.4,3.7-2.4,6.2c0,2.4,0.8,4.5,2.4,6.2c1.6,1.6,3.6,2.5,5.9,2.5c2.3,0,4.3-0.8,5.9-2.5
		c1.6-1.7,2.4-3.7,2.4-6.2c0-2.4-0.8-4.5-2.4-6.2C386.7,561.6,384.7,560.8,382.4,560.8z"/>
	<path class="st4" d="M407.3,579.7l-4.7-7.2h-4.8v7.2h-2.2V559h7.8c1.9,0,3.4,0.7,4.8,2c1.3,1.3,2,2.9,2,4.8c0,1.9-0.7,3.5-2,4.8
		c-0.9,0.9-1.9,1.5-3.1,1.8l4.8,7.4L407.3,579.7L407.3,579.7L407.3,579.7z M397.8,561.2v9.2h5.6c1.3,0,2.3-0.5,3.2-1.4
		c0.9-0.9,1.4-2,1.4-3.2s-0.5-2.3-1.4-3.2c-0.9-0.9-2-1.3-3.2-1.3L397.8,561.2L397.8,561.2z"/>
	<path class="st4" d="M415.8,559v20.7h-2.2V559H415.8z"/>
	<path class="st4" d="M422.4,568.3h7.6v2.2h-7.6v7.1h9.2v2.2h-11.4V559h11.4v2.2h-9.2L422.4,568.3L422.4,568.3z"/>
	<path class="st4" d="M437,577.1c0.8,0.6,1.7,0.9,2.7,0.9c1.1,0,2.1-0.4,2.9-1.2c0.8-0.7,1.2-1.6,1.2-2.6c0-1.3-0.4-2.2-1.3-2.8
		c-0.5-0.4-1.4-0.7-2.8-1c-1.9-0.5-3.2-1-3.9-1.5c-1.2-0.9-1.8-2.4-1.8-4.4c0-1.6,0.6-3.1,1.8-4.2c1.2-1.2,2.6-1.7,4.2-1.7
		c1.1,0,2.1,0.3,3.1,0.9s1.7,1.4,2.2,2.4l-1.9,1c-0.3-0.6-0.8-1.1-1.4-1.5c-0.6-0.4-1.3-0.6-2-0.6c-1,0-1.9,0.4-2.7,1.1
		c-0.7,0.7-1.1,1.6-1.1,2.7c0,1.3,0.4,2.2,1.3,2.8c0.5,0.4,1.4,0.7,2.8,1c1.9,0.5,3.2,1,3.9,1.5c1.2,0.9,1.8,2.4,1.8,4.4
		c0,1.6-0.6,3-1.9,4.2c-1.3,1.2-2.7,1.8-4.4,1.8c-1.4,0-2.8-0.4-4-1.3c-1.2-0.9-2-2-2.2-3.4l2.1-0.5
		C435.8,575.9,436.2,576.6,437,577.1z"/>
</g>
<g>
	<g>
		<rect id="XMLID_3_" x="259" y="598.1" class="st2" width="241.1" height="186.1"/>
	</g>
	<g>
		<g>
			<defs>
				<rect id="SVGID_5_" x="259" y="598.1" width="241.1" height="186.1"/>
			</defs>
			<clipPath id="SVGID_6_">
				<use xlink:href="#SVGID_5_"  style="overflow:visible;"/>
			</clipPath>
			<g class="st16">
			</g>
		</g>
	</g>
</g>
<g>
	<path class="st10" d="M447.9,769.2H311.1c-8,0-14.6-6.6-14.6-14.6v-9.1c0-8,6.6-14.6,14.6-14.6h136.8c8,0,14.6,6.6,14.6,14.6v9.1
		C462.5,762.7,456,769.2,447.9,769.2z"/>
	<g>
		<path class="st4" d="M370,743.4c0.5,0.7,0.7,1.5,0.7,2.4c0,1-0.2,1.7-0.7,2.3c-0.3,0.3-0.7,0.6-1.2,0.9c0.8,0.3,1.4,0.8,1.8,1.4
			s0.6,1.4,0.6,2.3c0,0.9-0.2,1.8-0.7,2.5c-0.3,0.5-0.7,0.9-1.1,1.2c-0.5,0.4-1.1,0.7-1.8,0.8c-0.7,0.1-1.4,0.2-2.2,0.2h-7.1v-15.8
			h7.7C367.8,741.7,369.2,742.3,370,743.4z M361.4,744.5v3.5h3.8c0.7,0,1.2-0.1,1.7-0.4c0.4-0.3,0.6-0.7,0.6-1.4
			c0-0.7-0.3-1.2-0.9-1.5c-0.5-0.2-1.1-0.2-1.9-0.2L361.4,744.5L361.4,744.5z M361.4,750.6v4.2h3.8c0.7,0,1.2-0.1,1.6-0.3
			c0.7-0.3,1-1,1-2c0-0.8-0.3-1.4-1-1.7c-0.4-0.2-0.9-0.3-1.6-0.3H361.4z"/>
		<path class="st4" d="M374.1,741.7h3.4v9.7c0,1.1,0.1,1.9,0.4,2.4c0.4,0.9,1.3,1.3,2.6,1.3c1.3,0,2.2-0.4,2.6-1.3
			c0.3-0.5,0.4-1.3,0.4-2.4v-9.7h3.4v9.7c0,1.7-0.3,3-0.8,3.9c-1,1.7-2.8,2.6-5.6,2.6c-2.7,0-4.6-0.9-5.6-2.6
			c-0.5-0.9-0.8-2.2-0.8-3.9L374.1,741.7L374.1,741.7z"/>
		<path class="st4" d="M399,741.7h3.7l-5.3,9.9v5.9h-3.3v-5.9l-5.5-9.9h3.9l3.3,6.9L399,741.7z"/>
	</g>
</g>
<path class="st17" d="M447.9,769.2H311.1c-8,0-14.6-6.6-14.6-14.6v-9.1c0-8,6.6-14.6,14.6-14.6h136.8c8,0,14.6,6.6,14.6,14.6v9.1
	C462.5,762.7,456,769.2,447.9,769.2z"/>
<g>
	<path class="st10" d="M370,743.4c0.5,0.7,0.7,1.5,0.7,2.4c0,1-0.2,1.7-0.7,2.3c-0.3,0.3-0.7,0.6-1.2,0.9c0.8,0.3,1.4,0.8,1.8,1.4
		s0.6,1.4,0.6,2.3c0,0.9-0.2,1.8-0.7,2.5c-0.3,0.5-0.7,0.9-1.1,1.2c-0.5,0.4-1.1,0.7-1.8,0.8c-0.7,0.1-1.4,0.2-2.2,0.2h-7.1v-15.8
		h7.7C367.8,741.7,369.2,742.3,370,743.4z M361.4,744.5v3.5h3.8c0.7,0,1.2-0.1,1.7-0.4c0.4-0.3,0.6-0.7,0.6-1.4
		c0-0.7-0.3-1.2-0.9-1.5c-0.5-0.2-1.1-0.2-1.9-0.2L361.4,744.5L361.4,744.5z M361.4,750.6v4.2h3.8c0.7,0,1.2-0.1,1.6-0.3
		c0.7-0.3,1-1,1-2c0-0.8-0.3-1.4-1-1.7c-0.4-0.2-0.9-0.3-1.6-0.3H361.4z"/>
	<path class="st10" d="M374.1,741.7h3.4v9.7c0,1.1,0.1,1.9,0.4,2.4c0.4,0.9,1.3,1.3,2.6,1.3c1.3,0,2.2-0.4,2.6-1.3
		c0.3-0.5,0.4-1.3,0.4-2.4v-9.7h3.4v9.7c0,1.7-0.3,3-0.8,3.9c-1,1.7-2.8,2.6-5.6,2.6c-2.7,0-4.6-0.9-5.6-2.6
		c-0.5-0.9-0.8-2.2-0.8-3.9L374.1,741.7L374.1,741.7z"/>
	<path class="st10" d="M399,741.7h3.7l-5.3,9.9v5.9h-3.3v-5.9l-5.5-9.9h3.9l3.3,6.9L399,741.7z"/>
</g>
<rect x="511" y="503.3" class="st13" width="241" height="280.8"/>
<g>
	<path class="st4" d="M539.6,540.9h-8.8l-2.2,5.3h-2.4l9-21.2l9,21.2h-2.4L539.6,540.9z M538.8,538.8l-3.5-8.3l-3.5,8.3H538.8z"/>
	<path class="st4" d="M557.6,546.1l-4.7-7.2h-4.8v7.2H546v-20.7h7.8c1.9,0,3.5,0.7,4.8,2c1.3,1.3,2,2.9,2,4.8c0,1.9-0.7,3.5-2,4.8
		c-0.9,0.9-1.9,1.5-3.1,1.8l4.8,7.4L557.6,546.1L557.6,546.1L557.6,546.1z M548.2,527.6v9.2h5.6c1.3,0,2.3-0.5,3.2-1.4
		c0.9-0.9,1.4-2,1.4-3.2c0-1.3-0.5-2.3-1.4-3.2c-0.9-0.9-2-1.3-3.2-1.3L548.2,527.6L548.2,527.6z"/>
	<path class="st4" d="M561.6,525.4h13.1v2.2h-5.5v18.5h-2.2v-18.5h-5.5L561.6,525.4L561.6,525.4z"/>
	<path class="st4" d="M578.7,543.5c0.8,0.6,1.7,0.9,2.7,0.9c1.1,0,2.1-0.4,2.9-1.2c0.8-0.7,1.2-1.6,1.2-2.6c0-1.3-0.4-2.2-1.3-2.8
		c-0.5-0.4-1.4-0.7-2.8-1c-1.9-0.5-3.2-1-3.9-1.5c-1.2-0.9-1.8-2.4-1.8-4.4c0-1.6,0.6-3.1,1.8-4.2c1.2-1.2,2.6-1.7,4.2-1.7
		c1.1,0,2.1,0.3,3.1,0.9s1.7,1.4,2.2,2.4l-1.9,1c-0.3-0.6-0.8-1.1-1.4-1.5c-0.6-0.4-1.3-0.6-2-0.6c-1,0-1.9,0.4-2.7,1.1
		c-0.7,0.7-1.1,1.6-1.1,2.7c0,1.3,0.4,2.2,1.3,2.8c0.5,0.4,1.4,0.7,2.8,1c1.9,0.5,3.2,1,3.9,1.5c1.2,0.9,1.8,2.4,1.8,4.4
		c0,1.6-0.6,3-1.9,4.2c-1.3,1.2-2.7,1.8-4.4,1.8c-1.4,0-2.8-0.4-4-1.3c-1.2-0.9-2-2-2.2-3.4l2.1-0.5
		C577.5,542.3,577.9,543,578.7,543.5z"/>
	<path class="st4" d="M591.4,546.1h-1V544h2.2v2.2l-0.7,2.4h-1.1L591.4,546.1z"/>
	<path class="st4" d="M616.5,527.7c-0.9-0.3-1.8-0.5-2.8-0.5c-2.4,0-4.4,0.8-6,2.5c-1.7,1.7-2.5,3.7-2.5,6.2s0.8,4.5,2.5,6.2
		c1.6,1.7,3.6,2.5,6,2.5c1,0,1.9-0.2,2.8-0.5c0.8-0.3,1.7-0.8,2.4-1.4l1.4,1.7c-1,0.8-2,1.4-3,1.8c-1.1,0.4-2.4,0.7-3.6,0.7
		c-3,0-5.5-1-7.5-3.1c-2.1-2.1-3.1-4.7-3.1-7.7c0-3,1-5.6,3.1-7.7c2.1-2.1,4.6-3.2,7.5-3.2c1.3,0,2.5,0.2,3.6,0.7
		c1.1,0.4,2.1,1,3,1.8l-1.4,1.7C618.2,528.5,617.4,528,616.5,527.7z"/>
	<path class="st4" d="M634.7,546.1l-4.7-7.2h-4.8v7.2H623v-20.7h7.8c1.9,0,3.5,0.7,4.8,2c1.3,1.3,2,2.9,2,4.8c0,1.9-0.7,3.5-2,4.8
		c-0.9,0.9-1.9,1.5-3.1,1.8l4.8,7.4L634.7,546.1L634.7,546.1z M625.2,527.6v9.2h5.6c1.3,0,2.3-0.5,3.2-1.4c0.9-0.9,1.4-2,1.4-3.2
		c0-1.3-0.5-2.3-1.4-3.2c-0.9-0.9-2-1.3-3.2-1.3L625.2,527.6L625.2,527.6z"/>
	<path class="st4" d="M651.9,540.9h-8.8l-2.2,5.3h-2.4l9-21.2l9,21.2h-2.4L651.9,540.9z M651,538.8l-3.5-8.3l-3.5,8.3H651z"/>
	<path class="st4" d="M660.4,534.7h7.9v2.2h-7.9v9.3h-2.2v-20.7H670v2.2h-9.6V534.7z"/>
	<path class="st4" d="M670.8,525.4h13.1v2.2h-5.5v18.5h-2.2v-18.5h-5.5L670.8,525.4L670.8,525.4z"/>
	<path class="st4" d="M687.9,543.5c0.8,0.6,1.7,0.9,2.7,0.9c1.1,0,2.1-0.4,2.9-1.2c0.8-0.7,1.2-1.6,1.2-2.6c0-1.3-0.4-2.2-1.3-2.8
		c-0.5-0.4-1.4-0.7-2.8-1c-1.9-0.5-3.2-1-3.9-1.5c-1.2-0.9-1.8-2.4-1.8-4.4c0-1.6,0.6-3.1,1.8-4.2c1.2-1.2,2.6-1.7,4.2-1.7
		c1.1,0,2.1,0.3,3.1,0.9s1.7,1.4,2.2,2.4l-1.9,1c-0.3-0.6-0.8-1.1-1.4-1.5c-0.6-0.4-1.3-0.6-2-0.6c-1,0-1.9,0.4-2.7,1.1
		c-0.7,0.7-1.1,1.6-1.1,2.7c0,1.3,0.4,2.2,1.3,2.8c0.5,0.4,1.4,0.7,2.8,1c1.9,0.5,3.2,1,3.9,1.5c1.2,0.9,1.8,2.4,1.8,4.4
		c0,1.6-0.6,3-1.9,4.2c-1.3,1.2-2.7,1.8-4.4,1.8c-1.4,0-2.8-0.4-4-1.3c-1.2-0.9-2-2-2.2-3.4l2.1-0.5
		C686.6,542.3,687.1,543,687.9,543.5z"/>
	<path class="st4" d="M700.6,546.1h-1V544h2.2v2.2l-0.7,2.4h-1.1L700.6,546.1z"/>
	<path class="st4" d="M725.5,544l-0.3-0.3c-0.1,0.2-0.3,0.3-0.4,0.5c-1.7,1.7-3.6,2.6-5.7,2.6c-1.9,0-3.4-0.5-4.6-1.5
		c-0.9-0.7-1.4-1.7-1.6-2.8c-0.2-1.1-0.1-2.2,0.3-3.3c0.6-1.6,1.8-3.1,3.6-4.4c-0.9-1-1.5-1.9-1.8-2.4c-0.4-0.8-0.6-1.8-0.6-2.8
		c0-1.3,0.5-2.3,1.4-3.1c0.9-0.8,2-1.2,3.3-1.2c1.4,0,2.5,0.4,3.5,1.2c0.9,0.8,1.4,1.9,1.4,3.3c0,1.3-0.5,2.6-1.6,3.8
		c-0.6,0.6-1.3,1.2-2.3,1.8c1.2,1.4,2.8,3,4.7,5c0.3-0.7,0.6-1.6,0.7-2.5l2.1,0.4c-0.2,1.4-0.6,2.6-1.2,3.7l0.6,0.6
		c1.3,1.2,2.1,2.1,2.5,2.5l-1.6,1.5C727.6,546,726.8,545.2,725.5,544z M718.2,536.4c-1.5,1-2.5,2.2-3,3.4c-0.3,0.7-0.4,1.4-0.2,2.1
		c0.1,0.6,0.4,1.1,0.9,1.6c0.8,0.7,1.8,1,3.2,1c1.5,0,2.9-0.6,4.1-1.9c0.1-0.2,0.3-0.3,0.4-0.5C721.3,539.9,719.5,538,718.2,536.4z
		 M718.6,533.6c0.9-0.6,1.6-1.1,2.1-1.6c0.7-0.8,1.1-1.5,1-2.2c0-0.7-0.2-1.3-0.7-1.7c-0.5-0.5-1.1-0.7-1.9-0.7
		c-0.8,0-1.4,0.2-1.9,0.7c-0.4,0.4-0.6,0.9-0.7,1.6c0,1,0.6,2.3,2,3.9L718.6,533.6z"/>
	<path class="st4" d="M530.6,577.1c0.8,0.6,1.7,0.9,2.7,0.9c1.1,0,2.1-0.4,2.9-1.2c0.8-0.7,1.2-1.6,1.2-2.6c0-1.3-0.4-2.2-1.3-2.8
		c-0.5-0.4-1.4-0.7-2.8-1c-1.9-0.5-3.2-1-3.9-1.5c-1.2-0.9-1.8-2.4-1.8-4.4c0-1.6,0.6-3.1,1.8-4.2c1.2-1.2,2.6-1.7,4.2-1.7
		c1.1,0,2.1,0.3,3.1,0.9s1.7,1.4,2.2,2.4l-1.9,1c-0.3-0.6-0.8-1.1-1.4-1.5c-0.6-0.4-1.3-0.6-2-0.6c-1,0-1.9,0.4-2.7,1.1
		c-0.7,0.7-1.1,1.6-1.1,2.7c0,1.3,0.4,2.2,1.3,2.8c0.5,0.4,1.4,0.7,2.8,1c1.9,0.5,3.2,1,3.9,1.5c1.2,0.9,1.8,2.4,1.8,4.4
		c0,1.6-0.6,3-1.9,4.2c-1.3,1.2-2.7,1.8-4.4,1.8c-1.4,0-2.8-0.4-4-1.3c-1.2-0.9-2-2-2.2-3.4l2.1-0.5
		C529.4,575.9,529.9,576.6,530.6,577.1z"/>
	<path class="st4" d="M544.5,568.3h7.6v2.2h-7.6v7.1h9.2v2.2h-11.4V559h11.4v2.2h-9.2V568.3z"/>
	<path class="st4" d="M557.1,559l5,15.1l6.8-15.1l6.8,15.1l5-15.1h2.3l-7,21.2l-7.1-15.8l-7.1,15.8l-6.9-21.2H557.1z"/>
	<path class="st4" d="M588,559v20.7h-2.2V559H588z"/>
	<path class="st4" d="M592.4,579.7v-20.9l14.5,15.8V559h2.2v21.2l-14.5-15.8v15.3L592.4,579.7L592.4,579.7z"/>
	<path class="st4" d="M622.2,568.3h9.8v1.1c0,3.1-0.9,5.7-2.8,7.8c-1.8,2-4.2,3.1-7.1,3.1c-2.9,0-5.2-1-7.1-3.1
		c-1.8-2.1-2.8-4.6-2.8-7.8c0-3.1,0.9-5.7,2.8-7.7c1.8-2,4.2-3.1,7.1-3.1c1.5,0,2.9,0.3,4.3,0.9c1.4,0.6,2.6,1.4,3.6,2.5l-1.6,1.5
		c-0.8-0.9-1.8-1.5-2.9-2c-1.1-0.5-2.2-0.7-3.4-0.7c-2.2,0-4,0.8-5.4,2.4c-1.5,1.6-2.2,3.7-2.2,6.3c0,2.6,0.7,4.7,2.2,6.3
		c1.4,1.6,3.2,2.4,5.4,2.4c2.2,0,4.1-0.8,5.5-2.4c1.2-1.4,1.9-3.1,2.1-5.2h-7.6L622.2,568.3L622.2,568.3z"/>
</g>
<g>
	<g>
		<rect id="XMLID_4_" x="511" y="598" class="st2" width="241" height="186"/>
	</g>
	<g>
		<g>
			<defs>
				<rect id="SVGID_7_" x="511" y="598" width="241" height="186"/>
			</defs>
			<clipPath id="SVGID_8_">
				<use xlink:href="#SVGID_7_"  style="overflow:visible;"/>
			</clipPath>
			<g class="st18">
			</g>
		</g>
	</g>
</g>
<g>
	<path class="st10" d="M703.8,768.8H566.9c-8,0-14.6-6.6-14.6-14.6v-9.1c0-8,6.6-14.6,14.6-14.6h136.8c8,0,14.6,6.6,14.6,14.6v9.1
		C718.4,762.2,711.8,768.8,703.8,768.8z"/>
	<g>
		<path class="st4" d="M625.8,742.9c0.5,0.7,0.7,1.5,0.7,2.4c0,1-0.2,1.7-0.7,2.3c-0.3,0.3-0.7,0.6-1.2,0.9c0.8,0.3,1.4,0.8,1.8,1.4
			c0.4,0.6,0.6,1.4,0.6,2.3c0,0.9-0.2,1.8-0.7,2.5c-0.3,0.5-0.7,0.9-1.1,1.2c-0.5,0.4-1.1,0.7-1.8,0.8c-0.7,0.1-1.4,0.2-2.2,0.2
			h-7.1v-15.8h7.7C623.7,741.3,625,741.8,625.8,742.9z M617.2,744v3.5h3.8c0.7,0,1.2-0.1,1.7-0.4c0.4-0.3,0.6-0.7,0.6-1.4
			c0-0.7-0.3-1.2-0.9-1.5c-0.5-0.2-1.1-0.2-1.9-0.2L617.2,744L617.2,744z M617.2,750.1v4.2h3.8c0.7,0,1.2-0.1,1.6-0.3
			c0.7-0.3,1-1,1-2c0-0.8-0.3-1.4-1-1.7c-0.4-0.2-0.9-0.3-1.6-0.3H617.2z"/>
		<path class="st4" d="M629.9,741.2h3.4v9.7c0,1.1,0.1,1.9,0.4,2.4c0.4,0.9,1.3,1.3,2.6,1.3c1.3,0,2.2-0.4,2.6-1.3
			c0.3-0.5,0.4-1.3,0.4-2.4v-9.7h3.4v9.7c0,1.7-0.3,3-0.8,3.9c-1,1.7-2.8,2.6-5.6,2.6c-2.7,0-4.6-0.9-5.6-2.6
			c-0.5-0.9-0.8-2.2-0.8-3.9L629.9,741.2L629.9,741.2z"/>
		<path class="st4" d="M654.8,741.2h3.7l-5.3,9.9v5.9H650v-5.9l-5.5-9.9h3.9l3.3,6.9L654.8,741.2z"/>
	</g>
</g>
<path class="st17" d="M703.8,768.8H566.9c-8,0-14.6-6.6-14.6-14.6v-9.1c0-8,6.6-14.6,14.6-14.6h136.8c8,0,14.6,6.6,14.6,14.6v9.1
	C718.4,762.2,711.8,768.8,703.8,768.8z"/>
<g>
	<path class="st10" d="M625.8,742.9c0.5,0.7,0.7,1.5,0.7,2.4c0,1-0.2,1.7-0.7,2.3c-0.3,0.3-0.7,0.6-1.2,0.9c0.8,0.3,1.4,0.8,1.8,1.4
		c0.4,0.6,0.6,1.4,0.6,2.3c0,0.9-0.2,1.8-0.7,2.5c-0.3,0.5-0.7,0.9-1.1,1.2c-0.5,0.4-1.1,0.7-1.8,0.8c-0.7,0.1-1.4,0.2-2.2,0.2h-7.1
		v-15.8h7.7C623.7,741.3,625,741.8,625.8,742.9z M617.2,744v3.5h3.8c0.7,0,1.2-0.1,1.7-0.4c0.4-0.3,0.6-0.7,0.6-1.4
		c0-0.7-0.3-1.2-0.9-1.5c-0.5-0.2-1.1-0.2-1.9-0.2L617.2,744L617.2,744z M617.2,750.1v4.2h3.8c0.7,0,1.2-0.1,1.6-0.3
		c0.7-0.3,1-1,1-2c0-0.8-0.3-1.4-1-1.7c-0.4-0.2-0.9-0.3-1.6-0.3H617.2z"/>
	<path class="st10" d="M629.9,741.2h3.4v9.7c0,1.1,0.1,1.9,0.4,2.4c0.4,0.9,1.3,1.3,2.6,1.3c1.3,0,2.2-0.4,2.6-1.3
		c0.3-0.5,0.4-1.3,0.4-2.4v-9.7h3.4v9.7c0,1.7-0.3,3-0.8,3.9c-1,1.7-2.8,2.6-5.6,2.6c-2.7,0-4.6-0.9-5.6-2.6
		c-0.5-0.9-0.8-2.2-0.8-3.9L629.9,741.2L629.9,741.2z"/>
	<path class="st10" d="M654.8,741.2h3.7l-5.3,9.9v5.9H650v-5.9l-5.5-9.9h3.9l3.3,6.9L654.8,741.2z"/>
</g>
<rect x="762.5" y="503.3" class="st13" width="243.5" height="280.8"/>
<g>
	<path class="st4" d="M776,528.4h13.1v2.2h-5.5v18.5h-2.2v-18.5H776L776,528.4L776,528.4z"/>
	<path class="st4" d="M806.8,531.1c2,2.1,3,4.7,3,7.7c0,3-1,5.6-3,7.7c-2,2.1-4.5,3.1-7.5,3.1c-2.9,0-5.4-1-7.5-3.1
		c-2-2.1-3-4.7-3-7.7c0-3,1-5.6,3-7.7c2-2.1,4.5-3.1,7.5-3.1C802.3,528,804.8,529.1,806.8,531.1z M799.4,530.2
		c-2.3,0-4.3,0.8-5.9,2.5c-1.6,1.7-2.4,3.7-2.4,6.2c0,2.4,0.8,4.5,2.4,6.2c1.6,1.6,3.6,2.5,5.9,2.5c2.3,0,4.3-0.8,5.9-2.5
		c1.6-1.7,2.4-3.7,2.4-6.2c0-2.4-0.8-4.5-2.4-6.2C803.7,531,801.7,530.2,799.4,530.2z"/>
	<path class="st4" d="M830,528.4l-8.3,13.9v6.8h-2.2v-6.8l-8.4-13.9h2.5l6.9,11.5l6.9-11.5H830z"/>
	<path class="st4" d="M833.9,546.5c0.8,0.6,1.7,0.9,2.7,0.9c1.1,0,2.1-0.4,2.9-1.2c0.8-0.7,1.2-1.6,1.2-2.6c0-1.3-0.4-2.2-1.3-2.8
		c-0.5-0.4-1.4-0.7-2.8-1c-1.9-0.5-3.2-1-3.9-1.5c-1.2-0.9-1.8-2.4-1.8-4.4c0-1.6,0.6-3.1,1.8-4.2c1.2-1.2,2.6-1.7,4.2-1.7
		c1.1,0,2.1,0.3,3.1,0.9s1.7,1.4,2.2,2.4l-1.9,1c-0.3-0.6-0.8-1.1-1.4-1.5c-0.6-0.4-1.3-0.6-2-0.6c-1,0-1.9,0.4-2.7,1.1
		c-0.7,0.7-1.1,1.6-1.1,2.7c0,1.3,0.4,2.2,1.3,2.8c0.5,0.4,1.4,0.7,2.8,1c1.9,0.5,3.2,1,3.9,1.5c1.2,0.9,1.8,2.4,1.8,4.4
		c0,1.6-0.6,3-1.9,4.2c-1.3,1.2-2.7,1.8-4.4,1.8c-1.4,0-2.8-0.4-4-1.3c-1.2-0.9-2-2-2.2-3.4l2.1-0.5
		C832.7,545.3,833.2,546,833.9,546.5z"/>
	<path class="st4" d="M866.1,547l-0.3-0.3c-0.1,0.2-0.3,0.3-0.4,0.5c-1.7,1.7-3.6,2.6-5.7,2.6c-1.9,0-3.4-0.5-4.6-1.5
		c-0.9-0.7-1.4-1.7-1.6-2.8c-0.2-1.1-0.1-2.2,0.3-3.3c0.6-1.6,1.8-3.1,3.6-4.4c-0.9-1-1.5-1.9-1.8-2.4c-0.4-0.8-0.6-1.8-0.6-2.8
		c0-1.3,0.5-2.3,1.4-3.1c0.9-0.8,2-1.2,3.3-1.2c1.4,0,2.5,0.4,3.5,1.2c0.9,0.8,1.4,1.9,1.4,3.3c0,1.3-0.5,2.6-1.6,3.8
		c-0.6,0.6-1.3,1.2-2.3,1.8c1.2,1.4,2.8,3,4.7,5c0.3-0.7,0.6-1.6,0.7-2.5l2.1,0.4c-0.2,1.4-0.6,2.6-1.2,3.7l0.6,0.6
		c1.3,1.2,2.1,2.1,2.5,2.5l-1.6,1.5C868.2,549,867.4,548.2,866.1,547z M858.8,539.4c-1.5,1-2.5,2.2-3,3.4c-0.3,0.7-0.4,1.4-0.2,2.1
		c0.1,0.6,0.4,1.1,0.9,1.6c0.8,0.7,1.8,1,3.2,1c1.5,0,2.9-0.6,4.1-1.9c0.1-0.2,0.3-0.3,0.4-0.5C861.9,542.9,860.1,541,858.8,539.4z
		 M859.2,536.6c0.9-0.6,1.6-1.1,2.1-1.6c0.7-0.8,1.1-1.5,1-2.2c0-0.7-0.2-1.3-0.7-1.7c-0.5-0.5-1.1-0.7-1.9-0.7
		c-0.8,0-1.4,0.2-1.9,0.7c-0.4,0.4-0.6,0.9-0.7,1.6c0,1,0.6,2.3,2,3.9L859.2,536.6z"/>
	<path class="st4" d="M888.2,537.7h9.8v1.1c0,3.1-0.9,5.7-2.8,7.8c-1.8,2-4.2,3.1-7.1,3.1c-2.9,0-5.2-1-7.1-3.1
		c-1.8-2.1-2.8-4.6-2.8-7.8c0-3.1,0.9-5.7,2.8-7.7c1.8-2,4.2-3.1,7.1-3.1c1.5,0,2.9,0.3,4.3,0.9c1.4,0.6,2.6,1.4,3.6,2.5l-1.6,1.5
		c-0.8-0.9-1.8-1.5-2.9-2c-1.1-0.5-2.2-0.7-3.4-0.7c-2.2,0-4,0.8-5.4,2.4c-1.5,1.6-2.2,3.7-2.2,6.3c0,2.6,0.7,4.7,2.2,6.3
		c1.4,1.6,3.2,2.4,5.4,2.4c2.2,0,4.1-0.8,5.5-2.4c1.2-1.4,1.9-3.1,2.1-5.2h-7.6L888.2,537.7L888.2,537.7z"/>
	<path class="st4" d="M912.6,543.9h-8.8l-2.2,5.3h-2.4l9-21.2l9,21.2h-2.4L912.6,543.9z M911.7,541.8l-3.5-8.3l-3.5,8.3H911.7z"/>
	<path class="st4" d="M919,549.1V528l11.2,16.8l11.2-16.8v21.2h-2.2v-14l-9,13.6l-9-13.6v14H919z"/>
	<path class="st4" d="M946.8,537.7h7.6v2.2h-7.6v7.1h9.2v2.2h-11.4v-20.7H956v2.2h-9.2V537.7z"/>
	<path class="st4" d="M961.4,546.5c0.8,0.6,1.7,0.9,2.7,0.9c1.1,0,2.1-0.4,2.9-1.2c0.8-0.7,1.2-1.6,1.2-2.6c0-1.3-0.4-2.2-1.3-2.8
		c-0.5-0.4-1.4-0.7-2.8-1c-1.9-0.5-3.2-1-3.9-1.5c-1.2-0.9-1.8-2.4-1.8-4.4c0-1.6,0.6-3.1,1.8-4.2c1.2-1.2,2.6-1.7,4.2-1.7
		c1.1,0,2.1,0.3,3.1,0.9s1.7,1.4,2.2,2.4l-1.9,1c-0.3-0.6-0.8-1.1-1.4-1.5c-0.6-0.4-1.3-0.6-2-0.6c-1,0-1.9,0.4-2.7,1.1
		c-0.7,0.7-1.1,1.6-1.1,2.7c0,1.3,0.4,2.2,1.3,2.8c0.5,0.4,1.4,0.7,2.8,1c1.9,0.5,3.2,1,3.9,1.5c1.2,0.9,1.8,2.4,1.8,4.4
		c0,1.6-0.6,3-1.9,4.2c-1.3,1.2-2.7,1.8-4.4,1.8c-1.4,0-2.8-0.4-4-1.3c-1.2-0.9-2-2-2.2-3.4l2.1-0.5
		C960.2,545.3,960.6,546,961.4,546.5z"/>
</g>
<g>
	<g>
		<rect id="XMLID_5_" x="762.5" y="598" class="st2" width="243.5" height="186"/>
	</g>
	<g>
		<g>
			<defs>
				<rect id="SVGID_9_" x="762.5" y="598" width="243.5" height="186"/>
			</defs>
			<clipPath id="SVGID_10_">
				<use xlink:href="#SVGID_9_"  style="overflow:visible;"/>
			</clipPath>
			<g class="st19">
			</g>
		</g>
	</g>
</g>
<g>
	<path class="st10" d="M956.6,768H819.8c-8,0-14.6-6.6-14.6-14.6v-9.1c0-8,6.6-14.6,14.6-14.6h136.8c8,0,14.6,6.6,14.6,14.6v9.1
		C971.2,761.5,964.7,768,956.6,768z"/>
	<g>
		<path class="st4" d="M878.7,742.2c0.5,0.7,0.7,1.5,0.7,2.4c0,1-0.2,1.7-0.7,2.3c-0.3,0.3-0.7,0.6-1.2,0.9c0.8,0.3,1.4,0.8,1.8,1.4
			c0.4,0.6,0.6,1.4,0.6,2.3c0,0.9-0.2,1.8-0.7,2.5c-0.3,0.5-0.7,0.9-1.1,1.2c-0.5,0.4-1.1,0.7-1.8,0.8c-0.7,0.1-1.4,0.2-2.2,0.2
			h-7.1v-15.8h7.7C876.5,740.5,877.9,741.1,878.7,742.2z M870.1,743.3v3.5h3.8c0.7,0,1.2-0.1,1.7-0.4c0.4-0.3,0.6-0.7,0.6-1.4
			c0-0.7-0.3-1.2-0.9-1.5c-0.5-0.2-1.1-0.2-1.9-0.2L870.1,743.3L870.1,743.3z M870.1,749.4v4.2h3.8c0.7,0,1.2-0.1,1.6-0.3
			c0.7-0.3,1-1,1-2c0-0.8-0.3-1.4-1-1.7c-0.4-0.2-0.9-0.3-1.6-0.3L870.1,749.4L870.1,749.4z"/>
		<path class="st4" d="M882.8,740.5h3.4v9.7c0,1.1,0.1,1.9,0.4,2.4c0.4,0.9,1.3,1.3,2.6,1.3c1.3,0,2.2-0.4,2.6-1.3
			c0.3-0.5,0.4-1.3,0.4-2.4v-9.7h3.4v9.7c0,1.7-0.3,3-0.8,3.9c-1,1.7-2.8,2.6-5.6,2.6c-2.7,0-4.6-0.9-5.6-2.6
			c-0.5-0.9-0.8-2.2-0.8-3.9L882.8,740.5L882.8,740.5z"/>
		<path class="st4" d="M907.7,740.5h3.7l-5.3,9.9v5.9h-3.3v-5.9l-5.5-9.9h3.9l3.3,6.9L907.7,740.5z"/>
	</g>
</g>
<path class="st17" d="M956.6,768H819.8c-8,0-14.6-6.6-14.6-14.6v-9.1c0-8,6.6-14.6,14.6-14.6h136.8c8,0,14.6,6.6,14.6,14.6v9.1
	C971.2,761.5,964.7,768,956.6,768z"/>
<g>
	<path class="st10" d="M878.7,742.2c0.5,0.7,0.7,1.5,0.7,2.4c0,1-0.2,1.7-0.7,2.3c-0.3,0.3-0.7,0.6-1.2,0.9c0.8,0.3,1.4,0.8,1.8,1.4
		c0.4,0.6,0.6,1.4,0.6,2.3c0,0.9-0.2,1.8-0.7,2.5c-0.3,0.5-0.7,0.9-1.1,1.2c-0.5,0.4-1.1,0.7-1.8,0.8c-0.7,0.1-1.4,0.2-2.2,0.2h-7.1
		v-15.8h7.7C876.5,740.5,877.9,741.1,878.7,742.2z M870.1,743.3v3.5h3.8c0.7,0,1.2-0.1,1.7-0.4c0.4-0.3,0.6-0.7,0.6-1.4
		c0-0.7-0.3-1.2-0.9-1.5c-0.5-0.2-1.1-0.2-1.9-0.2L870.1,743.3L870.1,743.3z M870.1,749.4v4.2h3.8c0.7,0,1.2-0.1,1.6-0.3
		c0.7-0.3,1-1,1-2c0-0.8-0.3-1.4-1-1.7c-0.4-0.2-0.9-0.3-1.6-0.3L870.1,749.4L870.1,749.4z"/>
	<path class="st10" d="M882.8,740.5h3.4v9.7c0,1.1,0.1,1.9,0.4,2.4c0.4,0.9,1.3,1.3,2.6,1.3c1.3,0,2.2-0.4,2.6-1.3
		c0.3-0.5,0.4-1.3,0.4-2.4v-9.7h3.4v9.7c0,1.7-0.3,3-0.8,3.9c-1,1.7-2.8,2.6-5.6,2.6c-2.7,0-4.6-0.9-5.6-2.6
		c-0.5-0.9-0.8-2.2-0.8-3.9L882.8,740.5L882.8,740.5z"/>
	<path class="st10" d="M907.7,740.5h3.7l-5.3,9.9v5.9h-3.3v-5.9l-5.5-9.9h3.9l3.3,6.9L907.7,740.5z"/>
</g>
<rect x="1016.7" y="503.3" class="st13" width="242.5" height="280.8"/>
<g>
	<path class="st4" d="M1039.7,536.4c1.1,1.1,1.7,2.5,1.7,4s-0.6,2.9-1.7,4c-1.1,1.1-2.5,1.7-4,1.7h-7.9v-20.7h7.9
		c1.6,0,2.9,0.6,4,1.7c1.1,1.1,1.7,2.5,1.7,4s-0.6,2.9-1.7,4c-0.2,0.2-0.4,0.4-0.7,0.6C1039.3,536,1039.5,536.2,1039.7,536.4z
		 M1029.9,527.6v7.1h5.8c1,0,1.8-0.3,2.5-1c0.7-0.7,1-1.5,1-2.5c0-1-0.3-1.8-1-2.5c-0.7-0.7-1.5-1-2.5-1L1029.9,527.6L1029.9,527.6z
		 M1029.9,536.9v7.1h5.8c1,0,1.8-0.3,2.5-1c0.7-0.7,1-1.5,1-2.5c0-1-0.3-1.8-1-2.5c-0.7-0.7-1.5-1-2.5-1L1029.9,536.9L1029.9,536.9z
		"/>
	<path class="st4" d="M1061.4,528.1c2,2.1,3.1,4.7,3.1,7.7c0,3-1,5.6-3.1,7.7c-2,2.1-4.5,3.1-7.5,3.1c-2.9,0-5.4-1-7.5-3.1
		c-2-2.1-3-4.7-3-7.7c0-3,1-5.6,3-7.7c2-2.1,4.5-3.1,7.5-3.1C1056.9,525,1059.4,526.1,1061.4,528.1z M1054,527.2
		c-2.3,0-4.3,0.8-5.9,2.5c-1.6,1.7-2.4,3.7-2.4,6.2c0,2.4,0.8,4.5,2.4,6.2c1.6,1.6,3.6,2.5,5.9,2.5c2.3,0,4.3-0.8,5.9-2.5
		c1.6-1.7,2.4-3.7,2.4-6.2c0-2.4-0.8-4.5-2.4-6.2C1058.3,528,1056.3,527.2,1054,527.2z"/>
	<path class="st4" d="M1084.6,528.1c2,2.1,3,4.7,3,7.7c0,3-1,5.6-3,7.7c-2,2.1-4.5,3.1-7.5,3.1c-2.9,0-5.4-1-7.5-3.1
		c-2-2.1-3-4.7-3-7.7c0-3,1-5.6,3-7.7c2-2.1,4.5-3.1,7.5-3.1C1080.1,525,1082.6,526.1,1084.6,528.1z M1077.2,527.2
		c-2.3,0-4.3,0.8-5.9,2.5c-1.6,1.7-2.4,3.7-2.4,6.2c0,2.4,0.8,4.5,2.4,6.2c1.6,1.6,3.6,2.5,5.9,2.5c2.3,0,4.3-0.8,5.9-2.5
		c1.6-1.7,2.4-3.7,2.4-6.2c0-2.4-0.8-4.5-2.4-6.2C1081.5,528,1079.5,527.2,1077.2,527.2z"/>
	<path class="st4" d="M1106.1,525.4l-9.5,9.5l9,11.2h-2.8l-7.7-9.7l-2.5,2.5v7.2h-2.2v-20.7h2.2v10.4l10.5-10.4L1106.1,525.4
		L1106.1,525.4z"/>
	<path class="st4" d="M1110.7,543.5c0.8,0.6,1.7,0.9,2.7,0.9c1.1,0,2.1-0.4,2.9-1.2c0.8-0.7,1.2-1.6,1.2-2.6c0-1.3-0.4-2.2-1.3-2.8
		c-0.5-0.4-1.4-0.7-2.8-1c-1.9-0.5-3.2-1-3.9-1.5c-1.2-0.9-1.8-2.4-1.8-4.4c0-1.6,0.6-3.1,1.8-4.2c1.2-1.2,2.6-1.7,4.2-1.7
		c1.1,0,2.1,0.3,3.1,0.9s1.7,1.4,2.2,2.4l-1.9,1c-0.3-0.6-0.8-1.1-1.4-1.5c-0.6-0.4-1.3-0.6-2-0.6c-1,0-1.9,0.4-2.7,1.1
		c-0.7,0.7-1.1,1.6-1.1,2.7c0,1.3,0.4,2.2,1.3,2.8c0.5,0.4,1.4,0.7,2.8,1c1.9,0.5,3.2,1,3.9,1.5c1.2,0.9,1.8,2.4,1.8,4.4
		c0,1.6-0.6,3-1.9,4.2c-1.3,1.2-2.7,1.8-4.4,1.8c-1.4,0-2.8-0.4-4-1.3c-1.2-0.9-2-2-2.2-3.4l2.1-0.5
		C1109.5,542.3,1110,543,1110.7,543.5z"/>
</g>
<g>
	<g>
		<rect id="XMLID_6_" x="1016.7" y="598" class="st2" width="242.5" height="186"/>
	</g>
	<g>
		<g>
			<defs>
				<rect id="SVGID_11_" x="1016.7" y="598" width="242.5" height="186"/>
			</defs>
			<clipPath id="SVGID_12_">
				<use xlink:href="#SVGID_11_"  style="overflow:visible;"/>
			</clipPath>
			<g class="st20">
			</g>
		</g>
	</g>
</g>
<g>
	<path class="st10" d="M1206,769.2h-136.8c-8,0-14.6-6.6-14.6-14.6v-9.1c0-8,6.6-14.6,14.6-14.6H1206c8,0,14.6,6.6,14.6,14.6v9.1
		C1220.6,762.7,1214,769.2,1206,769.2z"/>
	<g>
		<path class="st4" d="M1128.1,743.4c0.5,0.7,0.7,1.5,0.7,2.4c0,1-0.2,1.7-0.7,2.3c-0.3,0.3-0.7,0.6-1.2,0.9
			c0.8,0.3,1.4,0.8,1.8,1.4s0.6,1.4,0.6,2.3c0,0.9-0.2,1.8-0.7,2.5c-0.3,0.5-0.7,0.9-1.1,1.2c-0.5,0.4-1.1,0.7-1.8,0.8
			c-0.7,0.1-1.4,0.2-2.2,0.2h-7.1v-15.8h7.7C1125.9,741.7,1127.3,742.3,1128.1,743.4z M1119.5,744.5v3.5h3.8c0.7,0,1.2-0.1,1.7-0.4
			c0.4-0.3,0.6-0.7,0.6-1.4c0-0.7-0.3-1.2-0.9-1.5c-0.5-0.2-1.1-0.2-1.9-0.2L1119.5,744.5L1119.5,744.5z M1119.5,750.6v4.2h3.8
			c0.7,0,1.2-0.1,1.6-0.3c0.7-0.3,1-1,1-2c0-0.8-0.3-1.4-1-1.7c-0.4-0.2-0.9-0.3-1.6-0.3H1119.5z"/>
		<path class="st4" d="M1132.1,741.7h3.4v9.7c0,1.1,0.1,1.9,0.4,2.4c0.4,0.9,1.3,1.3,2.6,1.3c1.3,0,2.2-0.4,2.6-1.3
			c0.3-0.5,0.4-1.3,0.4-2.4v-9.7h3.4v9.7c0,1.7-0.3,3-0.8,3.9c-1,1.7-2.8,2.6-5.6,2.6c-2.7,0-4.6-0.9-5.6-2.6
			c-0.5-0.9-0.8-2.2-0.8-3.9L1132.1,741.7L1132.1,741.7z"/>
		<path class="st4" d="M1157.1,741.7h3.7l-5.3,9.9v5.9h-3.3v-5.9l-5.5-9.9h3.9l3.3,6.9L1157.1,741.7z"/>
	</g>
</g>
<path class="st17" d="M1206,769.2h-136.8c-8,0-14.6-6.6-14.6-14.6v-9.1c0-8,6.6-14.6,14.6-14.6H1206c8,0,14.6,6.6,14.6,14.6v9.1
	C1220.6,762.7,1214,769.2,1206,769.2z"/>
<g>
	<path class="st10" d="M1128.1,743.4c0.5,0.7,0.7,1.5,0.7,2.4c0,1-0.2,1.7-0.7,2.3c-0.3,0.3-0.7,0.6-1.2,0.9
		c0.8,0.3,1.4,0.8,1.8,1.4s0.6,1.4,0.6,2.3c0,0.9-0.2,1.8-0.7,2.5c-0.3,0.5-0.7,0.9-1.1,1.2c-0.5,0.4-1.1,0.7-1.8,0.8
		c-0.7,0.1-1.4,0.2-2.2,0.2h-7.1v-15.8h7.7C1125.9,741.7,1127.3,742.3,1128.1,743.4z M1119.5,744.5v3.5h3.8c0.7,0,1.2-0.1,1.7-0.4
		c0.4-0.3,0.6-0.7,0.6-1.4c0-0.7-0.3-1.2-0.9-1.5c-0.5-0.2-1.1-0.2-1.9-0.2L1119.5,744.5L1119.5,744.5z M1119.5,750.6v4.2h3.8
		c0.7,0,1.2-0.1,1.6-0.3c0.7-0.3,1-1,1-2c0-0.8-0.3-1.4-1-1.7c-0.4-0.2-0.9-0.3-1.6-0.3H1119.5z"/>
	<path class="st10" d="M1132.1,741.7h3.4v9.7c0,1.1,0.1,1.9,0.4,2.4c0.4,0.9,1.3,1.3,2.6,1.3c1.3,0,2.2-0.4,2.6-1.3
		c0.3-0.5,0.4-1.3,0.4-2.4v-9.7h3.4v9.7c0,1.7-0.3,3-0.8,3.9c-1,1.7-2.8,2.6-5.6,2.6c-2.7,0-4.6-0.9-5.6-2.6
		c-0.5-0.9-0.8-2.2-0.8-3.9L1132.1,741.7L1132.1,741.7z"/>
	<path class="st10" d="M1157.1,741.7h3.7l-5.3,9.9v5.9h-3.3v-5.9l-5.5-9.9h3.9l3.3,6.9L1157.1,741.7z"/>
</g>
<rect y="-1" class="st21" width="640" height="480"/>
<path class="st10" d="M627.1,352.5c0,12-9.7,21.7-21.7,21.7H229.8c-12,0-21.7-9.7-21.7-21.7V48.8c0-12,9.7-21.7,21.7-21.7h375.6
	c12,0,21.7,9.7,21.7,21.7L627.1,352.5L627.1,352.5z"/>
<path class="st4" d="M620.4,50.7c0,9.8-7.9,17.7-17.7,17.7H233c-9.8,0-17.7-7.9-17.7-17.7l0,0c0-9.8,7.9-17.7,17.7-17.7h369.7
	C612.4,32.9,620.4,40.9,620.4,50.7L620.4,50.7z"/>
<path class="st11" d="M620.4,118.7c0,9.8-7.9,17.7-17.7,17.7H233c-9.8,0-17.7-7.9-17.7-17.7l0,0c0-9.8,7.9-17.7,17.7-17.7h369.7
	C612.4,101,620.4,108.9,620.4,118.7L620.4,118.7z"/>
<text transform="matrix(1 0 0 1 235.9026 58.666)" class="st10 st22 st23">CATEGORY</text>
<text transform="matrix(1 0 0 1 235.9026 126.165)" class="st4 st22 st23">ELECTRONICS</text>
<text transform="matrix(1 0 0 1 235.9026 177.7998)" class="st4 st22 st23">COMPUTERS &amp; ACCESSORIES</text>
<text transform="matrix(1 0 0 1 235.9026 230.6792)" class="st4 st22 st23">ARTS, CRAFTS, &amp; SEWING</text>
<text transform="matrix(1 0 0 1 235.9026 285.3145)" class="st4 st22 st23">TOYS &amp; GAMES</text>
<text transform="matrix(1 0 0 1 235.9026 338.1489)" class="st4 st22 st23">BOOKS</text>
<text transform="matrix(-4.371139e-08 1 -1 -4.371139e-08 584.8747 44.4268)" class="st10 st24 st25">&gt;</text>
<text transform="matrix(1 0 0 1 586.9626 126.6064)" class="st4 st26 st25">&gt;</text>
<text transform="matrix(1 0 0 1 586.9626 177.7998)" class="st4 st26 st25">&gt;</text>
<text transform="matrix(1 0 0 1 586.9626 230.6792)" class="st4 st26 st25">&gt;</text>
<text transform="matrix(1 0 0 1 586.9626 285.3145)" class="st4 st26 st25">&gt;</text>
<text transform="matrix(1 0 0 1 586.9626 338.1489)" class="st4 st26 st25">&gt;</text>
</svg>
